<svg width="17" height="19" viewBox="0 0 17 19" fill="none" xmlns="http://www.w3.org/2000/svg">
<path d="M11.1667 3.01106L11.1433 3.04918C11.1504 3.05965 11.1566 3.06611 11.1592 3.06857C11.1616 3.0708 11.1571 3.06602 11.1393 3.0551L11.1667 3.01106ZM11.1667 3.01106L11.6207 3.01921M11.1667 3.01106L11.6154 5.30964V5.1005C11.6154 4.91237 11.6148 4.72424 11.6143 4.53611C11.6128 4.03048 11.6112 3.52485 11.6207 3.01921M11.6207 3.01921C11.624 2.83282 11.5575 2.72506 11.4006 2.62886M11.6207 3.01921L11.1669 3.01077L11.4006 2.62886M11.4006 2.62886L11.1665 3.01076M11.4006 2.62886C11.0814 2.43343 10.7809 2.24422 10.491 2.06164C9.21575 1.25855 8.14386 0.583527 6.56899 0.0700994L11.1665 3.01076M11.1665 3.01076L11.1241 3.00997C11.1227 3.00584 11.1218 3.0022 11.1211 2.99924C11.1206 2.99652 11.1204 2.99505 11.1204 2.99505C11.1204 2.99505 11.1209 2.99959 11.1207 3.00991L11.1665 3.01076ZM7.4929 7.46214C6.70648 8.6812 6.55324 10.2673 7.36215 11.8767C6.95032 12.1366 6.45524 12.5131 5.98731 12.9778C5.4757 13.486 4.9707 14.1252 4.65162 14.8618C2.94428 13.6083 1.91703 11.8347 1.30982 9.8398C0.647126 7.6626 0.493939 5.24947 0.500182 3.02903C2.18955 1.98947 4.00468 1.15361 5.90511 0.54039L5.90511 0.540405L5.90891 0.539147C6.06978 0.485812 6.24518 0.48702 6.40517 0.542501L6.40514 0.542584L6.41401 0.545475C7.9253 1.03818 8.93903 1.67613 10.2084 2.47497C10.4962 2.65611 10.7972 2.84552 11.1201 3.04339C11.1113 3.54379 11.1128 4.04621 11.1143 4.54256C11.1148 4.72955 11.1154 4.91567 11.1154 5.1005V5.33334C9.59531 5.47814 8.25764 6.27669 7.4929 7.46214ZM11.1373 3.03951C11.1311 3.02864 11.1269 3.0185 11.1242 3.01029L11.1663 3.01105L11.1431 3.04883C11.1412 3.04601 11.1393 3.0429 11.1373 3.03951Z" stroke="#E29542"/>
<mask id="path-2-inside-1_467_139" fill="white">
<path d="M13.7871 12.8369C13.8446 12.7832 13.9243 12.7614 13.9924 12.8008C15.3878 13.6087 16.3373 14.7942 16.8225 16.3949C16.8313 16.4152 16.8331 16.4382 16.8275 16.4597C16.8166 16.5018 16.7762 16.5283 16.745 16.5585C15.6342 17.6359 14.2527 18.3552 12.7644 18.6301C10.5655 19.0336 8.54103 18.5635 6.70532 17.2256C6.41082 17.0115 6.14612 16.7498 5.86517 16.5157C5.84502 16.501 5.83056 16.4792 5.82442 16.4542C5.81229 16.4048 5.83879 16.355 5.85369 16.3064C6.28663 14.8936 7.19846 13.697 8.41636 12.9463C8.4968 12.8938 8.58655 12.8496 8.67159 12.7982C8.69247 12.7856 8.71106 12.768 8.73443 12.761C8.74608 12.7575 8.7583 12.7567 8.77028 12.7586C8.78226 12.7605 8.79372 12.7651 8.80388 12.772C8.82431 12.786 8.83741 12.8082 8.85397 12.8266C9.34856 13.3756 9.99918 13.7411 10.7083 13.8675C11.899 14.0787 12.9261 13.7257 13.7871 12.8369Z"/>
</mask>
<path d="M13.7871 12.8369C13.8446 12.7832 13.9243 12.7614 13.9924 12.8008C15.3878 13.6087 16.3373 14.7942 16.8225 16.3949C16.8313 16.4152 16.8331 16.4382 16.8275 16.4597C16.8166 16.5018 16.7762 16.5283 16.745 16.5585C15.6342 17.6359 14.2527 18.3552 12.7644 18.6301C10.5655 19.0336 8.54103 18.5635 6.70532 17.2256C6.41082 17.0115 6.14612 16.7498 5.86517 16.5157C5.84502 16.501 5.83056 16.4792 5.82442 16.4542C5.81229 16.4048 5.83879 16.355 5.85369 16.3064C6.28663 14.8936 7.19846 13.697 8.41636 12.9463C8.4968 12.8938 8.58655 12.8496 8.67159 12.7982C8.69247 12.7856 8.71106 12.768 8.73443 12.761C8.74608 12.7575 8.7583 12.7567 8.77028 12.7586C8.78226 12.7605 8.79372 12.7651 8.80388 12.772C8.82431 12.786 8.83741 12.8082 8.85397 12.8266C9.34856 13.3756 9.99918 13.7411 10.7083 13.8675C11.899 14.0787 12.9261 13.7257 13.7871 12.8369Z" fill="#E29542"/>
<path d="M16.8225 16.3949L14.9085 16.975L14.9424 17.0871L14.9892 17.1944L16.8225 16.3949ZM12.7644 18.6301L13.1254 20.5973L13.1277 20.5968L12.7644 18.6301ZM6.70532 17.2256L7.88332 15.6093L7.88137 15.6079L6.70532 17.2256ZM5.86517 16.5157L7.1454 14.9791L7.09558 14.9376L7.04318 14.8994L5.86517 16.5157ZM8.41636 12.9463L9.46581 14.6489L9.48806 14.6352L9.50994 14.6209L8.41636 12.9463ZM10.7083 13.8675L10.3573 15.8364L10.3589 15.8367L10.7083 13.8675ZM8.85397 12.8266L7.36804 14.1653L8.85397 12.8266ZM5.85369 16.3064L3.94146 15.7204L5.85369 16.3064ZM16.745 16.5585L18.1375 17.9942L16.745 16.5585ZM8.67159 12.7982L9.70601 14.5099L8.67159 12.7982ZM13.9924 12.8008L12.9903 14.5316L13.9924 12.8008ZM12.9903 14.5316C13.9443 15.084 14.5695 15.8567 14.9085 16.975L18.7365 15.8147C18.1051 13.7316 16.8314 12.1335 14.9945 11.0699L12.9903 14.5316ZM14.9892 17.1944C14.8179 16.8016 14.7854 16.3654 14.892 15.9559L18.763 16.9636C18.8808 16.5109 18.8448 16.0288 18.6557 15.5953L14.9892 17.1944ZM15.3526 15.1228C14.5179 15.9325 13.4919 16.4619 12.4011 16.6634L13.1277 20.5968C15.0134 20.2485 16.7505 19.3394 18.1375 17.9942L15.3526 15.1228ZM12.4035 16.663C10.7545 16.9655 9.28456 16.6306 7.88332 15.6093L5.52733 18.8419C7.7975 20.4964 10.3766 21.1016 13.1254 20.5973L12.4035 16.663ZM7.88137 15.6079C7.6349 15.4287 7.62518 15.3789 7.1454 14.9791L4.58493 18.0523C4.66706 18.1207 5.18673 18.5942 5.52928 18.8433L7.88137 15.6079ZM7.04318 14.8994C7.41706 15.172 7.66421 15.56 7.76668 15.9771L3.88216 16.9313C3.9969 17.3984 4.27298 17.8301 4.68715 18.132L7.04318 14.8994ZM7.76593 16.8924C8.06187 15.9266 8.67704 15.1351 9.46581 14.6489L7.36691 11.2438C5.71989 12.259 4.51138 13.8606 3.94146 15.7204L7.76593 16.8924ZM9.50994 14.6209C9.48674 14.636 9.47607 14.641 9.51638 14.6186C9.52805 14.612 9.56274 14.5928 9.58937 14.5778C9.62031 14.5604 9.66096 14.5371 9.70601 14.5099L7.63717 11.0865C7.6397 11.0849 7.63724 11.0865 7.62492 11.0934C7.6083 11.1028 7.59957 11.1076 7.56812 11.1251C7.52219 11.1507 7.42642 11.2041 7.32278 11.2718L9.50994 14.6209ZM9.30904 14.6767C9.03421 14.7591 8.7434 14.7792 8.45815 14.7341L9.08241 10.7831C8.77321 10.7342 8.45795 10.7559 8.15981 10.8453L9.30904 14.6767ZM8.45815 14.7341C8.17304 14.689 7.90658 14.5811 7.67597 14.4236L9.93179 11.1204C9.68086 10.949 9.39149 10.8319 9.08241 10.7831L8.45815 14.7341ZM7.36804 14.1653C8.15157 15.035 9.19761 15.6297 10.3573 15.8364L11.0592 11.8985C10.8008 11.8524 10.5455 11.7162 10.3399 11.488L7.36804 14.1653ZM10.3589 15.8367C12.2396 16.1704 13.9261 15.5678 15.2236 14.2284L12.3505 11.4454C11.9261 11.8835 11.5583 11.987 11.0577 11.8982L10.3589 15.8367ZM7.67597 14.4236C7.45015 14.2694 7.31538 14.1042 7.285 14.0672C7.27405 14.0539 7.25164 14.0256 7.27434 14.0542C7.28463 14.0672 7.32024 14.1122 7.36804 14.1653L10.3399 11.488C10.3794 11.5318 10.4072 11.5672 10.4097 11.5704C10.4247 11.5892 10.3946 11.551 10.3758 11.5281C10.3296 11.4719 10.178 11.2886 9.93179 11.1204L7.67597 14.4236ZM7.76668 15.9771C7.88032 16.4397 7.78657 16.8069 7.75373 16.9233C7.73656 16.9841 7.71951 17.03 7.72436 17.0164C7.72468 17.0156 7.72494 17.0148 7.72566 17.0128C7.72625 17.0112 7.72715 17.0087 7.72813 17.0059C7.73008 17.0004 7.73308 16.992 7.73654 16.982C7.74327 16.9627 7.75408 16.931 7.76593 16.8924L3.94146 15.7204C3.9545 15.6779 3.96911 15.6383 3.9579 15.6697C3.95397 15.6807 3.92825 15.7512 3.90411 15.8368C3.85733 16.0025 3.75639 16.4193 3.88216 16.9313L7.76668 15.9771ZM14.892 15.9559C15.0139 15.4875 15.2765 15.2045 15.3656 15.1135C15.4122 15.0661 15.4512 15.0322 15.4427 15.0398C15.4423 15.0401 15.4418 15.0405 15.4406 15.0416C15.4395 15.0426 15.4378 15.0441 15.4359 15.0458C15.4321 15.0492 15.4259 15.0547 15.4186 15.0613C15.4044 15.074 15.3806 15.0957 15.3526 15.1228L18.1375 17.9942C18.1051 18.0256 18.0719 18.0544 18.0965 18.0327C18.1046 18.0255 18.1602 17.9767 18.2221 17.9136C18.342 17.7913 18.6301 17.4741 18.763 16.9636L14.892 15.9559ZM9.70601 14.5099C9.76995 14.4713 9.81909 14.4368 9.83297 14.4271C9.86403 14.4054 9.83262 14.4274 9.81699 14.4379C9.77419 14.4667 9.58661 14.5934 9.30904 14.6767L8.15981 10.8453C7.85887 10.9356 7.65032 11.0747 7.58716 11.1171C7.56136 11.1344 7.51992 11.1636 7.54089 11.149C7.54468 11.1463 7.58366 11.1188 7.63717 11.0865L9.70601 14.5099ZM14.9945 11.0699C13.9275 10.4522 12.8986 10.9305 12.4227 11.3745L15.1514 14.2993C14.7906 14.6359 13.921 15.0705 12.9903 14.5316L14.9945 11.0699Z" fill="#E29542" mask="url(#path-2-inside-1_467_139)"/>
<path d="M14.1427 9.89347C14.1427 10.4421 13.98 10.9784 13.6751 11.4346C13.3703 11.8908 12.937 12.2463 12.4301 12.4562C11.9233 12.6662 11.3655 12.721 10.8274 12.614C10.2893 12.5069 9.79505 12.2426 9.40715 11.8546C9.01925 11.4666 8.75513 10.9723 8.64818 10.4342C8.54123 9.89605 8.59627 9.3383 8.80633 8.83146C9.01638 8.32462 9.37203 7.89146 9.82828 7.58675C10.2845 7.28205 10.8209 7.11949 11.3695 7.11963C12.1048 7.12059 12.8098 7.41316 13.3296 7.93317C13.8495 8.45318 14.1419 9.15816 14.1427 9.89347Z" fill="#E29542"/>
</svg>
