<svg width="20" height="20" viewBox="0 0 20 20" fill="none" xmlns="http://www.w3.org/2000/svg">
<path d="M10 18.0166C9.87726 18.0162 9.75809 17.9752 9.66112 17.8999C6.57223 15.4999 4.44445 13.4333 2.95556 11.3944C1.05556 8.78883 0.62223 6.38328 1.66667 4.24439C2.41112 2.71661 4.55001 1.46661 7.05001 2.19439C8.24198 2.53869 9.28195 3.27705 10 4.28883C10.7181 3.27705 11.758 2.53869 12.95 2.19439C15.4445 1.47772 17.5889 2.71661 18.3333 4.24439C19.3778 6.38328 18.9445 8.78883 17.0445 11.3944C15.5556 13.4333 13.4278 15.4999 10.3389 17.8999C10.2419 17.9752 10.1228 18.0162 10 18.0166Z" fill="#E29542"/>
</svg>
