<svg width="20" height="20" viewBox="0 0 20 20" fill="none" xmlns="http://www.w3.org/2000/svg">
<path d="M18.6779 9.7389C16.8057 6.27779 13.5224 4.18335 9.88902 4.18335C6.25569 4.18335 2.9668 6.27779 1.11124 9.7389L0.955688 10L1.10013 10.2667C2.97236 13.7278 6.25569 15.8222 9.88902 15.8222C13.5224 15.8222 16.8112 13.7556 18.6779 10.2667L18.8224 10L18.6779 9.7389ZM9.88902 14.6833C6.76124 14.6833 3.88902 12.9389 2.22236 10C3.88902 7.06113 6.76124 5.31668 9.88902 5.31668C13.0168 5.31668 15.8557 7.06668 17.5501 10C15.8557 12.9389 13.0112 14.6833 9.88902 14.6833Z" fill="#E29542"/>
<path d="M10.0499 6.20567C9.29663 6.21117 8.56189 6.43977 7.93847 6.8626C7.31505 7.28544 6.83091 7.88354 6.54721 8.58136C6.26352 9.27918 6.19298 10.0454 6.34451 10.7833C6.49604 11.5212 6.86284 12.1976 7.39859 12.7272C7.93433 13.2567 8.615 13.6156 9.3546 13.7586C10.0942 13.9015 10.8596 13.822 11.554 13.5302C12.2485 13.2384 12.8409 12.7474 13.2565 12.1191C13.672 11.4907 13.8921 10.7534 13.8888 10.0001C13.8866 9.49869 13.7855 9.00262 13.5913 8.54034C13.397 8.07807 13.1135 7.65866 12.7568 7.30617C12.4002 6.95368 11.9775 6.67502 11.513 6.48618C11.0485 6.29733 10.5513 6.20201 10.0499 6.20567Z" fill="#E29542"/>
</svg>
