<svg width="18" height="18" viewBox="0 0 18 18" fill="none" xmlns="http://www.w3.org/2000/svg">
<mask id="path-1-inside-1_417_102" fill="white">
<path d="M12.3077 8.8331C12.3966 8.75017 12.5197 8.71638 12.6249 8.77729C14.781 10.0256 16.248 11.8572 16.9975 14.3303C17.0112 14.3617 17.014 14.3972 17.0053 14.4306C16.9884 14.4956 16.9261 14.5364 16.8779 14.5832C15.1616 16.2478 13.027 17.3591 10.7276 17.7839C7.33029 18.4073 4.20231 17.681 1.36606 15.6138C0.911036 15.283 0.502071 14.8787 0.0679794 14.517C0.036854 14.4943 0.0145098 14.4606 0.00502859 14.422C-0.0137163 14.3457 0.0272318 14.2688 0.0502545 14.1936C0.719155 12.0108 2.12799 10.1621 4.0097 9.00218C4.13398 8.92101 4.27266 8.85267 4.40404 8.77327C4.4363 8.75378 4.46502 8.7267 4.50113 8.71587C4.51913 8.71047 4.53802 8.70919 4.55652 8.71211C4.57503 8.71504 4.59273 8.7221 4.60844 8.73282C4.64001 8.75438 4.66024 8.78881 4.68582 8.81722C5.44999 9.66546 6.45524 10.2301 7.55082 10.4254C9.39048 10.7518 10.9775 10.2063 12.3077 8.8331Z"/>
</mask>
<path d="M12.3077 8.8331C12.3966 8.75017 12.5197 8.71638 12.6249 8.77729C14.781 10.0256 16.248 11.8572 16.9975 14.3303C17.0112 14.3617 17.014 14.3972 17.0053 14.4306C16.9884 14.4956 16.9261 14.5364 16.8779 14.5832C15.1616 16.2478 13.027 17.3591 10.7276 17.7839C7.33029 18.4073 4.20231 17.681 1.36606 15.6138C0.911036 15.283 0.502071 14.8787 0.0679794 14.517C0.036854 14.4943 0.0145098 14.4606 0.00502859 14.422C-0.0137163 14.3457 0.0272318 14.2688 0.0502545 14.1936C0.719155 12.0108 2.12799 10.1621 4.0097 9.00218C4.13398 8.92101 4.27266 8.85267 4.40404 8.77327C4.4363 8.75378 4.46502 8.7267 4.50113 8.71587C4.51913 8.71047 4.53802 8.70919 4.55652 8.71211C4.57503 8.71504 4.59273 8.7221 4.60844 8.73282C4.64001 8.75438 4.66024 8.78881 4.68582 8.81722C5.44999 9.66546 6.45524 10.2301 7.55082 10.4254C9.39048 10.7518 10.9775 10.2063 12.3077 8.8331Z" fill="#E29542"/>
<path d="M16.9975 14.3303L15.0835 14.9104L15.1175 15.0225L15.1643 15.1298L16.9975 14.3303ZM10.7276 17.7839L11.0886 19.751L11.091 19.7506L10.7276 17.7839ZM1.36606 15.6138L2.54406 13.9976L2.54211 13.9961L1.36606 15.6138ZM0.0679794 14.517L1.34821 12.9805L1.29839 12.939L1.24599 12.9008L0.0679794 14.517ZM4.0097 9.00218L5.05914 10.7047L5.0814 10.691L5.10328 10.6767L4.0097 9.00218ZM7.55082 10.4254L7.19986 12.3943L7.20144 12.3946L7.55082 10.4254ZM4.68582 8.81722L3.19989 10.1559L4.68582 8.81722ZM0.0502545 14.1936L-1.86198 13.6077L0.0502545 14.1936ZM16.8779 14.5832L18.2703 16.0189L16.8779 14.5832ZM4.40404 8.77327L5.43846 10.485L4.40404 8.77327ZM12.6249 8.77729L13.627 7.04645L12.6249 8.77729ZM11.6228 10.5081C13.3374 11.5008 14.4802 12.9197 15.0835 14.9104L18.9116 13.7502C18.0157 10.7946 16.2245 8.55032 13.627 7.04645L11.6228 10.5081ZM15.1643 15.1298C14.9978 14.7481 14.9663 14.3245 15.0698 13.9267L18.9408 14.9344C19.0617 14.47 19.0247 13.9753 18.8308 13.5308L15.1643 15.1298ZM15.4855 13.1475C14.0453 14.5444 12.2663 15.4658 10.3643 15.8172L11.091 19.7506C13.7878 19.2524 16.2779 17.9513 18.2703 16.0189L15.4855 13.1475ZM10.3667 15.8167C7.51925 16.3392 4.94585 15.7481 2.54406 13.9976L0.188074 17.2301C3.45878 19.6139 7.14132 20.4753 11.0886 19.751L10.3667 15.8167ZM2.54211 13.9961C2.13512 13.7003 1.98113 13.5078 1.34821 12.9805L-1.21225 16.0536C-0.976992 16.2496 -0.313049 16.8658 0.190016 17.2315L2.54211 13.9961ZM1.24599 12.9008C1.6089 13.1653 1.84817 13.5414 1.94729 13.9449L-1.93723 14.8991C-1.81915 15.3799 -1.53519 15.8234 -1.11003 16.1333L1.24599 12.9008ZM1.96249 14.7796C2.4944 13.0438 3.60656 11.6001 5.05914 10.7047L2.96025 7.29964C0.649414 8.72403 -1.05609 10.9778 -1.86198 13.6077L1.96249 14.7796ZM5.10328 10.6767C5.102 10.6776 5.11452 10.6694 5.17833 10.6338C5.22454 10.608 5.33439 10.5479 5.43846 10.485L3.36962 7.06156C3.3423 7.07806 3.31712 7.09179 3.23008 7.14033C3.16064 7.17905 3.04168 7.24564 2.91611 7.32764L5.10328 10.6767ZM5.07574 10.6315C4.80726 10.7121 4.52311 10.7316 4.2444 10.6876L4.86865 6.73662C4.55292 6.68673 4.23099 6.70886 3.92651 6.80019L5.07574 10.6315ZM4.2444 10.6876C3.96581 10.6436 3.70559 10.5381 3.48053 10.3844L5.73634 7.08121C5.47988 6.90607 5.18426 6.78648 4.86865 6.73662L4.2444 10.6876ZM3.19989 10.1559C4.253 11.3248 5.65367 12.1187 7.19986 12.3943L7.90179 8.4564C7.25681 8.34143 6.64698 8.00607 6.17176 7.47856L3.19989 10.1559ZM7.20144 12.3946C9.73117 12.8434 11.9775 12.0485 13.7442 10.2246L10.8712 7.44156C9.97746 8.36415 9.04979 8.66008 7.90021 8.45612L7.20144 12.3946ZM3.48053 10.3844C3.366 10.3062 3.27938 10.2284 3.21944 10.1687C3.16105 10.1106 3.12053 10.0622 3.104 10.042C3.0953 10.0314 3.08933 10.0239 3.08924 10.0237C3.08909 10.0236 3.08914 10.0236 3.08951 10.0241C3.08999 10.0247 3.09035 10.0252 3.09135 10.0264C3.09288 10.0284 3.09607 10.0324 3.09969 10.037C3.11209 10.0527 3.14984 10.1003 3.19989 10.1559L6.17176 7.47856C6.20901 7.51991 6.23463 7.55262 6.23507 7.55317C6.2479 7.56937 6.21575 7.52845 6.19475 7.50288C6.14428 7.44144 5.98817 7.25319 5.73634 7.08121L3.48053 10.3844ZM1.94729 13.9449C2.05762 14.3941 1.96583 14.7477 1.93679 14.8506C1.92152 14.9047 1.90682 14.9439 1.91407 14.9237C1.91488 14.9214 1.92286 14.8992 1.92982 14.8793C1.93771 14.8566 1.94963 14.8216 1.96249 14.7796L-1.86198 13.6077C-1.85097 13.5717 -1.83878 13.5388 -1.85239 13.5769C-1.85871 13.5946 -1.88679 13.6719 -1.91283 13.7642C-1.96341 13.9434 -2.06631 14.3737 -1.93723 14.8991L1.94729 13.9449ZM15.0698 13.9267C15.1888 13.4698 15.4443 13.1961 15.5251 13.1137C15.5674 13.0705 15.602 13.0407 15.5889 13.0523C15.5888 13.0524 15.5721 13.0672 15.558 13.0798C15.5416 13.0946 15.5156 13.1183 15.4855 13.1475L18.2703 16.0189C18.2422 16.0461 18.2136 16.071 18.2427 16.0452C18.2553 16.034 18.3155 15.9811 18.3816 15.9138C18.5098 15.783 18.8049 15.4563 18.9408 14.9344L15.0698 13.9267ZM5.43846 10.485C5.50525 10.4446 5.55715 10.4083 5.57378 10.3967C5.57865 10.3933 5.58295 10.3902 5.58493 10.3889C5.58767 10.3869 5.58757 10.387 5.58742 10.3871C5.58698 10.3874 5.57836 10.3935 5.56606 10.4017C5.5288 10.4267 5.34694 10.5502 5.07574 10.6315L3.92651 6.80019C3.6192 6.89237 3.40493 7.03477 3.33622 7.08091C3.30765 7.1001 3.26348 7.13126 3.2817 7.11852C3.28274 7.11779 3.31896 7.09217 3.36962 7.06156L5.43846 10.485ZM13.627 7.04645C12.5229 6.40726 11.4506 6.89747 10.9433 7.37071L13.672 10.2955C13.3426 10.6029 12.5164 11.0255 11.6228 10.5081L13.627 7.04645Z" fill="#E29542" mask="url(#path-1-inside-1_417_102)"/>
<path d="M12.8571 4.28572C12.8571 5.1334 12.6057 5.96204 12.1347 6.66685C11.6638 7.37166 10.9944 7.92097 10.2112 8.24531C9.428 8.56965 8.56623 8.65446 7.73485 8.489C6.90347 8.32355 6.13983 7.91526 5.54051 7.31578C4.94118 6.7163 4.5331 5.95255 4.36786 5.12113C4.20262 4.28971 4.28765 3.42796 4.6122 2.64487C4.93675 1.86177 5.48623 1.19251 6.19116 0.721728C6.89609 0.250942 7.7248 -0.000221876 8.57249 1.4707e-07C9.70857 0.00148577 10.7977 0.453527 11.6009 1.25697C12.4041 2.0604 12.8559 3.14963 12.8571 4.28572Z" fill="#E29542"/>
</svg>
