<svg width="48" height="36" viewBox="0 0 48 36" fill="none" xmlns="http://www.w3.org/2000/svg">
<rect width="48" height="36" rx="18" fill="#E29542"/>
<path d="M17.788 14.9256C17.7424 14.6506 17.9545 14.4004 18.2333 14.4004H29.7729C30.0511 14.4004 30.2631 14.6497 30.2184 14.9243C29.5881 18.7966 28.9587 22.6633 28.3301 26.5244C28.2945 26.7428 28.1059 26.9032 27.8846 26.9032H20.1556C19.9348 26.9032 19.7464 26.7435 19.7103 26.5256C19.0707 22.6648 18.4299 18.7981 17.788 14.9256ZM23.7642 15.9294V25.4101H24.5V15.9294H23.7642ZM20.1288 15.9294C20.5482 19.0943 20.9665 22.2555 21.3837 25.413H22.2553C21.8359 22.2481 21.4175 19.0869 21 15.9294H20.1288ZM27.2353 15.9294C26.8159 19.0926 26.3976 22.2529 25.9805 25.4105H26.7452C27.1646 22.2468 27.5829 19.0864 28 15.9294H27.2353Z" fill="#F8F7F7"/>
<path d="M25.5659 10.3231C26.1262 10.2535 26.6568 10.1891 27.1867 10.1218C27.7233 10.0537 28.2599 9.983 28.7953 9.9138C29.3308 9.8446 29.8685 9.78132 30.4028 9.70546C30.7059 9.66254 30.8935 9.79279 30.929 10.0944C30.9531 10.2961 30.989 10.4966 30.9993 10.6987C31.0108 10.9233 30.8754 11.078 30.6567 11.1057C29.6575 11.2323 28.6562 11.354 27.6563 11.4817C26.6564 11.6094 25.6466 11.7459 24.6415 11.8739C23.7164 11.9924 22.7872 12.1026 21.8606 12.2211C21.0376 12.3258 20.2157 12.4379 19.3935 12.5441C18.7962 12.6203 18.1986 12.6943 17.6017 12.7706C17.3057 12.8076 17.0918 12.7036 17.0614 12.3506C17.0459 12.1729 17.0111 11.9968 17.0011 11.8192C16.9863 11.5553 17.1188 11.3947 17.3756 11.3625C18.3873 11.2345 19.4001 11.1113 20.4122 10.9847C21.1072 10.8981 21.8019 10.8102 22.4963 10.7209C22.52 10.7179 22.5426 10.7061 22.5274 10.7109C22.4268 10.5259 22.2739 10.353 22.234 10.1558C22.1489 9.73433 22.4323 9.41571 22.8775 9.36206C23.5665 9.27843 24.2556 9.19183 24.9446 9.10635C25.248 9.06935 25.5115 9.13337 25.6791 9.41349C25.8468 9.69362 25.8235 9.97486 25.6258 10.238C25.611 10.2572 25.5977 10.2772 25.5659 10.3231Z" fill="#F8F7F7"/>
</svg>
