<svg width="83" height="72" viewBox="0 0 83 72" fill="none" xmlns="http://www.w3.org/2000/svg">
<path d="M61.0805 7.41857C57.8599 10.9703 55.2391 15.0089 53.3181 19.3802C50.9946 24.9689 50.3484 30.8498 49.9882 36.7949C49.7371 41.2549 49.4368 45.708 47.8458 49.9736C45.9009 54.9232 42.6099 59.2487 38.3342 62.4748C38.083 62.5813 37.8091 62.6252 37.5366 62.6025C37.2642 62.5798 37.0016 62.4913 36.7721 62.3448C33.8159 60.1619 31.6481 57.1016 30.5873 53.6138C28.6061 47.5027 28.4663 40.9561 30.1849 34.7682C32.0788 26.2488 36.6536 18.5367 43.2566 12.7321C46.6172 9.6039 50.8712 7.56854 55.4433 6.90119C57.279 6.78169 59.1204 6.77051 60.9575 6.86775L61.0805 7.41857Z" fill="#F8F7F7"/>
<path d="M41.1916 64.5675C43.1023 62.4484 45.0383 60.5194 46.7272 58.4007C51.2193 52.7374 52.5891 46.0567 53.0631 39.1168C53.3129 34.6161 53.8398 30.1346 54.6409 25.697C55.8969 19.2273 59.4816 13.8655 63.9417 9.06306C64.1548 8.93856 64.396 8.86821 64.6435 8.85833C64.8911 8.84845 65.1372 8.89937 65.3599 9.00648C68.885 11.2382 71.4481 14.6767 72.5557 18.6599C74.4928 24.93 74.5287 31.6215 72.659 37.9115C70.2806 46.7674 65.7983 54.4135 58.4633 60.1745C54.3057 63.4031 49.6587 65.4573 44.2101 65.1447C43.7267 65.1178 43.2455 65.0606 42.7693 64.9737C42.2778 64.8393 41.775 64.7004 41.1916 64.5675Z" fill="#F8F7F7"/>
<path d="M26.4623 53.6268C24.3604 53.4634 22.332 52.7524 20.5897 51.557L20.5713 51.5444L20.5524 51.5326C16.4583 48.986 13.113 44.7925 11.0463 40.0239C8.97918 35.2546 8.22701 29.9939 9.21459 25.3512L9.21993 25.3261L9.22397 25.3008C9.46226 23.8051 10.0106 22.374 10.8347 21.0966C11.3193 20.3455 11.9806 19.4767 12.6823 18.7141C12.6819 18.7998 12.6822 18.8881 12.6835 18.9791C12.7892 26.6787 16.5004 31.6678 21.583 36.3856C24.1468 38.8873 25.3589 41.7811 25.3864 45.2175C25.4074 47.8337 25.7856 49.893 26.1636 51.9513C26.2655 52.5063 26.3674 53.0611 26.4623 53.6268Z" stroke="#F8F7F7" stroke-width="2"/>
<path d="M25.4185 17.4903L25.4376 17.5022L25.4572 17.5132C25.907 17.765 26.3616 18.062 26.8331 18.3741C27.9094 19.1007 28.6505 19.6113 29.1655 20.0536C29.6731 20.4896 29.8587 20.7758 29.9357 21.0156C30.0135 21.2575 30.0284 21.5999 29.8774 22.2528C29.7243 22.9146 29.4373 23.7553 29.0243 24.9651L29.0231 24.9688C29.023 24.969 29.0229 24.9691 29.0229 24.9693C28.2548 27.2089 27.6574 29.5365 27.0721 31.8165C26.8482 32.6888 26.626 33.5541 26.3968 34.4049C21.2294 29.1261 17.5632 23.4515 17.4961 15.993C18.7228 15.7689 19.9815 15.7504 21.2188 15.9403C22.7112 16.1694 24.1403 16.6969 25.4185 17.4903Z" stroke="#F8F7F7" stroke-width="2"/>
</svg>
