<svg width="67" height="64" viewBox="0 0 67 64" fill="none" xmlns="http://www.w3.org/2000/svg">
<path d="M42.2356 23.3339C41.5638 23.8705 40.5903 23.7117 40.0642 23.0317C39.5542 22.3725 39.6289 21.4381 40.2396 20.8709C40.7773 20.3715 41.3013 19.8736 41.7911 19.3336C42.9657 18.0394 42.9548 16.611 41.9542 15.208C41.2872 14.2763 40.5766 13.3954 39.8552 12.4854C36.1587 7.91191 36.6612 3.77758 41.3279 0.706122C41.9815 0.275903 42.8898 0.458536 43.2774 1.13834C43.7083 1.894 43.5097 2.84875 42.8548 3.42131C42.4395 3.7845 42.0392 4.14644 41.6678 4.53522C40.1452 6.12309 40.0292 7.22155 41.211 9.05231C41.7836 9.90197 42.4033 10.7189 43.0672 11.4994C46.8411 16.1543 46.6346 19.8202 42.2356 23.3339Z" fill="#F8F7F7"/>
<path d="M29.824 23.3339C29.1522 23.8705 28.1787 23.7117 27.6526 23.0317C27.1425 22.3725 27.2173 21.4381 27.828 20.8709C28.3657 20.3715 28.8897 19.8736 29.3795 19.3336C30.5541 18.0394 30.5432 16.611 29.5426 15.208C28.8755 14.2763 28.165 13.3954 27.4436 12.4854C23.7471 7.91191 24.2495 3.77758 28.9163 0.706122C29.5699 0.275903 30.4782 0.458536 30.8658 1.13834C31.2967 1.894 31.0981 2.84875 30.4432 3.42131C30.0278 3.7845 29.6276 4.14644 29.2562 4.53522C27.7336 6.12309 27.6176 7.22155 28.7994 9.05231C29.372 9.90197 29.9917 10.7189 30.6556 11.4994C34.4295 16.1543 34.223 19.8202 29.824 23.3339Z" fill="#F8F7F7"/>
<path d="M15.824 23.3339C15.1522 23.8705 14.1787 23.7117 13.6526 23.0317C13.1425 22.3725 13.2173 21.4381 13.828 20.8709C14.3657 20.3715 14.8897 19.8736 15.3795 19.3336C16.5541 18.0394 16.5432 16.611 15.5426 15.208C14.8755 14.2763 14.165 13.3954 13.4436 12.4854C9.74711 7.91191 10.2495 3.77758 14.9163 0.706122C15.5699 0.275903 16.4782 0.458536 16.8658 1.13834C17.2967 1.894 17.0981 2.84875 16.4432 3.42131C16.0278 3.7845 15.6276 4.14644 15.2562 4.53522C13.7336 6.12309 13.6176 7.22155 14.7994 9.05231C15.372 9.90197 15.9917 10.7189 16.6556 11.4994C20.4295 16.1543 20.223 19.8202 15.824 23.3339Z" fill="#F8F7F7"/>
<path d="M0.00627112 35.8975C0.031648 30.7351 0.0316463 30.7314 5.12516 30.7351C21.2455 30.7351 37.3647 30.7351 53.4827 30.7351C59.4028 30.7351 63.735 33.5338 65.4751 38.5765C67.0013 43.0175 66.1675 47.1213 62.9628 50.5001C59.758 53.8788 55.6869 54.9555 51.1879 53.6142C49.8973 53.2299 49.2302 53.4547 48.3203 54.419C40.3447 62.8876 30.5565 65.7987 19.4885 62.3728C8.42053 58.947 2.08718 50.9677 0.165784 39.5119C0.083915 39.0323 0.0330563 38.5479 0.0135232 38.0617C-0.0118537 37.3476 0.00627112 36.6225 0.00627112 35.8975ZM4.80976 36.8292C4.90705 37.7871 5.68559 39.7252 7.57585 39.684C13.3038 39.568 19.039 39.6405 24.7705 39.6405C32.4924 39.6405 40.2178 39.6405 47.9397 39.6151C49.5903 39.6151 50.2722 38.3338 50.4918 36.8292H4.80976ZM56.0458 36.0642C54.9799 40.4399 53.9794 44.5619 52.928 48.8759C54.9256 49.4705 56.9992 49.0463 58.7974 47.4766C60.8384 45.6966 61.6033 43.4054 60.8891 40.788C60.1749 38.1705 58.4638 36.608 56.0603 36.0715L56.0458 36.0642Z" fill="#F8F7F7"/>
</svg>
