<svg width="67" height="61" viewBox="0 0 67 61" fill="none" xmlns="http://www.w3.org/2000/svg">
<path d="M28.6125 15.2315C30.4647 17.2072 32.4094 19.1829 34.3355 21.1216C36.2617 23.0604 38.1694 24.9622 40.1141 26.8271C40.7768 27.5008 41.576 28.0258 42.4585 28.3669C43.341 28.708 44.2864 28.8573 45.2314 28.8048C46.1765 28.7524 47.0994 28.4994 47.9384 28.0628C48.7775 27.6262 49.5134 27.0161 50.097 26.2731C51.0265 24.9859 51.4694 23.4124 51.3473 21.831C51.2253 20.2497 50.5462 18.7622 49.4302 17.6319C47.5781 15.6931 45.726 13.939 43.8739 12.0003L36.2432 4.31914L35.7432 3.78369C37.1695 2.71047 38.7572 1.86915 40.4475 1.29101C42.9971 0.444217 45.693 0.123763 48.3709 0.349144C51.0488 0.574526 53.6526 1.34104 56.0237 2.60198C59.344 4.207 62.0914 6.78754 63.8961 9.99628C65.7007 13.205 66.4761 16.8879 66.1177 20.5492C66.0064 23.479 65.3795 26.3664 64.2656 29.0797C63.3867 31.0794 62.129 32.8913 60.5614 34.4159L35.6135 59.3242C35.318 59.678 34.9515 59.9664 34.5376 60.1709C34.1237 60.3753 33.6716 60.4912 33.2101 60.5113C32.7487 60.5313 32.2881 60.455 31.8579 60.2873C31.4278 60.1195 31.0376 59.864 30.7123 59.5371C30.387 59.2102 30.1337 58.8191 29.9689 58.389C29.804 57.9588 29.7311 57.4991 29.7549 57.0392C29.7787 56.5794 29.8986 56.1295 30.1069 55.7185C30.3153 55.3076 30.6074 54.9445 30.9647 54.6527L45.7816 39.8813C46.6521 39.0135 46.6706 38.4226 45.9112 37.6102C45.1518 36.7978 44.3925 36.6685 43.485 37.6102C38.5213 42.5586 33.5391 47.4886 28.6681 52.3816C28.2827 52.82 27.7907 53.1523 27.2392 53.3463C26.6878 53.5403 26.0956 53.5896 25.5195 53.4895C24.9571 53.4211 24.4262 53.1934 23.9896 52.8334C23.553 52.4735 23.2291 51.9963 23.0562 51.4584C22.8186 50.8949 22.7482 50.2753 22.8532 49.6731C22.9583 49.0709 23.2344 48.5114 23.6489 48.061C24.2971 47.3593 25.0009 46.7131 25.6677 46.0299L38.6324 33.1049C38.8547 32.8834 39.0769 32.6803 39.2807 32.4402C39.9104 31.6832 39.8178 31.0185 39.0029 30.206C38.1879 29.3936 37.6508 29.4121 36.91 30.0768C36.1691 30.7415 35.0579 31.8309 34.28 32.6987L21.8153 45.2729C21.3953 45.7498 20.8516 46.102 20.2438 46.2909C19.6361 46.4799 18.9879 46.4982 18.3704 46.3438C17.8054 46.2519 17.2757 46.01 16.837 45.6435C16.3983 45.2769 16.0667 44.7993 15.8772 44.2608C15.6877 43.7223 15.6472 43.1429 15.76 42.5834C15.8728 42.0239 16.1348 41.5051 16.5183 41.0815C17.0554 40.4352 17.6851 39.8628 18.3704 39.2351L31.187 26.4578L31.7241 25.9223C32.8354 24.796 32.965 24.0759 32.1871 23.3743C31.4092 22.6726 30.4647 22.5249 29.3904 23.5958L20.9819 31.9232L14.7773 38.0718C14.6199 38.2411 14.4529 38.4014 14.2772 38.5519C13.9902 38.8513 13.6453 39.0896 13.2633 39.2524C12.8813 39.4152 12.4702 39.4991 12.0547 39.4991C11.6393 39.4991 11.2282 39.4152 10.8462 39.2524C10.4642 39.0896 10.1192 38.8513 9.8322 38.5519C9.50778 38.2433 9.24953 37.8722 9.07308 37.4612C8.89664 37.0502 8.80566 36.6078 8.80566 36.1608C8.80566 35.7137 8.89664 35.2713 9.07308 34.8603C9.24953 34.4493 9.50778 34.0783 9.8322 33.7696L21.2041 22.5064L27.8902 15.9516C28.0014 15.7485 28.2051 15.5823 28.6125 15.2315Z" fill="#F8F7F7"/>
<path d="M3.26164 10.4548L3.26832 10.4415L3.2746 10.428C4.41219 7.98317 6.15623 5.86741 8.34235 4.28073C10.5285 2.69403 13.0845 1.68884 15.769 1.36035L15.8069 1.35572L15.8443 1.34821C18.785 0.758109 21.8278 0.920018 24.6887 1.81878C27.5497 2.71754 30.1354 4.32379 32.205 6.48747L32.2133 6.49605L32.2217 6.50444C32.8457 7.12658 33.4521 7.73324 34.0502 8.3316C35.2215 9.50332 36.3609 10.6432 37.5388 11.8053C37.5395 11.806 37.5402 11.8067 37.5409 11.8074L46.2421 20.4819L46.2619 20.5016L46.2828 20.5202C46.5277 20.7386 46.7247 21.0047 46.8615 21.302C46.9982 21.5994 47.0719 21.9215 47.0781 22.2482L47.0785 22.272L47.0801 22.2956C47.1072 22.7045 47.0104 23.1122 46.802 23.466C46.5935 23.8198 46.2828 24.1034 45.9099 24.2795L45.884 24.2917L45.859 24.3053C45.4796 24.5117 45.0476 24.6026 44.6166 24.5664C44.1856 24.5303 43.775 24.3686 43.4359 24.1021L43.436 24.102L43.4254 24.0939C43.165 23.8948 42.9223 23.6739 42.6999 23.4336L42.6862 23.4188L42.672 23.4046L29.8073 10.5794C29.542 10.147 29.1042 9.92571 28.7019 9.87085C28.2824 9.81365 27.7814 9.92055 27.4048 10.2948L5.06237 32.4989C2.88311 29.4975 1.52222 25.9761 1.12296 22.2801C0.683895 18.2155 1.42621 14.1108 3.26164 10.4548Z" stroke="#F8F7F7" stroke-width="2"/>
</svg>
