<svg width="104" height="48" viewBox="0 0 104 48" fill="none" xmlns="http://www.w3.org/2000/svg">
<rect width="104" height="48" rx="24" fill="#E29542"/>
<path d="M47.5934 25.2556L47.8808 27.172C47.8808 27.172 48.0341 27.2869 48.1108 27.2869H59.3212C59.7236 27.2869 60.1069 27.2869 60.2986 27.7468C60.3961 27.9493 60.4352 28.1749 60.4115 28.3983C60.3878 28.6218 60.3022 28.8342 60.1644 29.0116C60.0838 29.1257 59.9728 29.2149 59.8441 29.2691C59.7154 29.3232 59.5741 29.3403 59.4362 29.3182H47.8042C47.4125 29.3777 47.0127 29.2889 46.6831 29.0692C46.3535 28.8494 46.1177 28.5145 46.022 28.1301C45.8082 27.5061 45.648 26.865 45.5429 26.2138C44.9297 23.0327 44.3165 19.8516 43.7224 16.6322C43.7224 16.4597 43.6266 16.4215 43.4733 16.4215H41.9785C41.8385 16.4215 41.6999 16.3936 41.5707 16.3394C41.4416 16.2852 41.3245 16.2059 41.2264 16.106C41.1283 16.0061 41.0511 15.8876 40.9992 15.7575C40.9474 15.6274 40.922 15.4883 40.9246 15.3483V14.6584C40.9133 14.5532 40.925 14.4468 40.959 14.3466C40.9929 14.2465 41.0483 14.1549 41.1213 14.0783C41.1942 14.0017 41.283 13.9419 41.3814 13.9031C41.4798 13.8643 41.5855 13.8474 41.6911 13.8535H44.3739C44.6459 13.8419 44.9134 13.9255 45.1302 14.0899C45.3471 14.2543 45.4999 14.4892 45.5621 14.7542C45.7154 15.2716 45.716 15.746 45.8878 16.3639C45.9741 16.674 46.137 17.1496 46.137 17.1496H61.4675C61.7543 17.1443 62.0397 17.1897 62.3107 17.2838C62.4645 17.327 62.6064 17.4046 62.7258 17.5108C62.8451 17.6169 62.9388 17.7488 62.9997 17.8965C63.0606 18.0441 63.0872 18.2038 63.0774 18.3632C63.0676 18.5226 63.0216 18.6778 62.9431 18.8168L61.3334 23.416C61.2184 23.7034 61.1034 24.0101 60.9693 24.3167C60.8375 24.6076 60.6202 24.8515 60.3463 25.0158C60.0724 25.1802 59.7549 25.2571 59.4362 25.2365H47.555L47.5934 25.2556Z" fill="#F8F7F7"/>
<path d="M57.6733 29.9889C57.9498 29.9812 58.2252 30.0291 58.4829 30.1296C58.7407 30.2302 58.9757 30.3814 59.174 30.5744C59.3723 30.7673 59.5299 30.9981 59.6375 31.253C59.7451 31.5079 59.8005 31.7818 59.8004 32.0585C59.7954 32.3379 59.7354 32.6136 59.6239 32.8697C59.5123 33.1259 59.3514 33.3575 59.1503 33.5515C58.9493 33.7455 58.7119 33.8979 58.4519 34.0002C58.1919 34.1024 57.9143 34.1524 57.6349 34.1474C57.0892 34.1325 56.5705 33.9065 56.1881 33.5169C55.8056 33.1273 55.5892 32.6044 55.5845 32.0585C55.5845 31.7851 55.6386 31.5144 55.7438 31.2621C55.849 31.0097 56.0032 30.7807 56.1974 30.5883C56.3916 30.3959 56.622 30.2438 56.8754 30.1409C57.1287 30.038 57.3999 29.9864 57.6733 29.9889Z" fill="#F8F7F7"/>
<path d="M48.2835 29.9506C48.5567 29.9454 48.8281 29.9954 49.0816 30.0975C49.335 30.1997 49.5653 30.352 49.7585 30.5452C49.9517 30.7384 50.104 30.9686 50.2062 31.2221C50.3083 31.4755 50.3583 31.747 50.3531 32.0202C50.3032 32.5421 50.0605 33.0267 49.6725 33.3794C49.2845 33.732 48.779 33.9274 48.2547 33.9274C47.7304 33.9274 47.2249 33.732 46.8369 33.3794C46.4489 33.0267 46.2063 32.5421 46.1564 32.0202C46.1536 31.7428 46.2071 31.4676 46.3138 31.2115C46.4204 30.9553 46.5779 30.7235 46.7768 30.53C46.9757 30.3365 47.2117 30.1854 47.4707 30.0858C47.7297 29.9862 48.0062 29.9402 48.2835 29.9506Z" fill="#F8F7F7"/>
</svg>
