<svg width="34" height="34" viewBox="0 0 34 34" fill="none" xmlns="http://www.w3.org/2000/svg">
<circle cx="17" cy="17" r="17" fill="#E29542"/>
<path d="M16.2305 22.0888C16.2305 22.0888 16.0272 22.8616 15.2494 22.3633C15.1429 22.3118 15.0482 22.2388 14.9712 22.1489L10 17.1777L14.9626 12.2065C15.1269 12.0658 15.3382 11.9923 15.5543 12.0006C15.7703 12.009 16.0272 12.0434 16.2305 12.3002V16.2504H25.7293C25.957 16.2504 26.1754 16.3408 26.3364 16.5019C26.4974 16.6629 26.5879 16.8813 26.5879 17.109C26.5879 17.3367 26.4974 17.5551 26.3364 17.7161C26.1754 17.8771 25.957 17.9676 25.7293 17.9676H16.2305V22.0888Z" fill="#F8F7F7"/>
</svg>
