<svg width="14" height="18" viewBox="0 0 14 18" fill="none" xmlns="http://www.w3.org/2000/svg">
<path d="M0.787939 5.82876C0.742354 5.55376 0.954467 5.30359 1.23322 5.30359H12.7729C13.0511 5.30359 13.2631 5.55286 13.2184 5.82746C12.5881 9.6998 11.9586 13.5665 11.33 17.4276C11.2945 17.646 11.1058 17.8064 10.8846 17.8064H3.15552C2.93471 17.8064 2.74632 17.6467 2.71023 17.4288C2.07064 13.568 1.42987 9.70129 0.787939 5.82876ZM6.76413 6.83263V16.3133H7.5V6.83263H6.76413ZM3.12877 6.83263C3.54816 9.99753 3.96644 13.1587 4.38361 16.3162H5.25521C4.83582 13.1513 4.41742 9.99013 4 6.83263H3.12877ZM10.2353 6.83263C9.81588 9.99581 9.3976 13.1561 8.98043 16.3137H9.74516C10.1646 13.15 10.5828 9.98964 11 6.83263H10.2353Z" fill="#E29542"/>
<path d="M8.5659 1.22627C9.12615 1.1567 9.6568 1.09231 10.1867 1.02497C10.7233 0.956876 11.2599 0.886197 11.7953 0.816998C12.3308 0.747799 12.8685 0.68452 13.4028 0.60866C13.7059 0.565735 13.8935 0.695992 13.929 0.997582C13.9531 1.19926 13.989 1.39983 13.9993 1.60187C14.0108 1.82649 13.8754 1.98117 13.6567 2.00893C12.6575 2.13548 11.6562 2.25723 10.6563 2.38489C9.65643 2.51256 8.64657 2.64911 7.64152 2.77715C6.71639 2.89556 5.7872 3.00584 4.8606 3.12425C4.03761 3.22898 3.21573 3.3411 2.39348 3.4473C1.79623 3.52353 1.1986 3.59754 0.601708 3.67377C0.305669 3.71078 0.0917808 3.6068 0.0614368 3.25377C0.0458947 3.07615 0.01111 2.9 0.00111865 2.72238C-0.0136833 2.45853 0.118794 2.29793 0.375608 2.26574C1.38732 2.1377 2.40014 2.01448 3.41223 1.88792C4.10718 1.80133 4.80189 1.71338 5.49634 1.62407C5.52003 1.62111 5.5426 1.60927 5.52743 1.61408C5.42677 1.42906 5.27394 1.25625 5.23398 1.05901C5.14887 0.637524 5.43233 0.318912 5.87749 0.265255C6.56653 0.181624 7.25556 0.0950324 7.94459 0.00955113C8.24803 -0.0274537 8.5115 0.0365648 8.67913 0.316692C8.84677 0.596819 8.82345 0.878056 8.62585 1.14116C8.61104 1.1604 8.59772 1.18039 8.5659 1.22627Z" fill="#E29542"/>
</svg>
