<svg width="340" height="15" viewBox="0 0 340 15" fill="none" xmlns="http://www.w3.org/2000/svg">
<path d="M7.84473 6.93945C7.73991 7.55469 7.47331 8.0332 7.04492 8.375C6.61654 8.71224 6.10384 8.88086 5.50684 8.88086C4.75488 8.88086 4.1123 8.61198 3.5791 8.07422C3.0459 7.53646 2.7793 6.82096 2.7793 5.92773C2.7793 5.09375 3.01855 4.39648 3.49707 3.83594C3.98014 3.27539 4.60905 2.99512 5.38379 2.99512C5.87142 2.99512 6.3112 3.0931 6.70312 3.28906C7.38216 3.63997 7.7513 4.22331 7.81055 5.03906H6.9834C6.94238 4.69727 6.79883 4.40104 6.55273 4.15039C6.30664 3.89974 5.94889 3.77441 5.47949 3.77441C4.81868 3.77441 4.34017 4.07064 4.04395 4.66309C3.85254 5.04134 3.75684 5.44922 3.75684 5.88672C3.75684 6.51107 3.90951 7.03743 4.21484 7.46582C4.52474 7.88965 4.97135 8.10156 5.55469 8.10156C5.92839 8.10156 6.24056 8.00358 6.49121 7.80762C6.74186 7.6071 6.91732 7.31771 7.01758 6.93945H7.84473ZM5.37695 1.63477C4.1875 1.63477 3.1735 2.05859 2.33496 2.90625C1.50098 3.74935 1.08398 4.7679 1.08398 5.96191C1.08398 7.16504 1.4987 8.19043 2.32812 9.03809C3.16667 9.88574 4.18294 10.3096 5.37695 10.3096C6.57096 10.3096 7.58724 9.88574 8.42578 9.03809C9.25521 8.19043 9.66992 7.16504 9.66992 5.96191C9.66992 4.7679 9.25293 3.74935 8.41895 2.90625C7.58496 2.05859 6.57096 1.63477 5.37695 1.63477ZM10.4014 5.96191C10.4014 7.35189 9.91146 8.53906 8.93164 9.52344C7.95182 10.5078 6.76693 11 5.37695 11C3.98698 11 2.80208 10.5078 1.82227 9.52344C0.842448 8.53906 0.352539 7.35189 0.352539 5.96191C0.352539 4.5765 0.842448 3.39616 1.82227 2.4209C2.80208 1.44564 3.98698 0.958008 5.37695 0.958008C6.76693 0.958008 7.95182 1.44564 8.93164 2.4209C9.91146 3.39616 10.4014 4.5765 10.4014 5.96191ZM19.7461 0.68457C21.0176 0.68457 22.0042 1.01953 22.7061 1.68945C23.4079 2.35938 23.7975 3.12044 23.875 3.97266H22.5488C22.3984 3.32552 22.0977 2.81283 21.6465 2.43457C21.1999 2.05632 20.571 1.86719 19.7598 1.86719C18.7708 1.86719 17.971 2.21582 17.3604 2.91309C16.7542 3.60579 16.4512 4.66992 16.4512 6.10547C16.4512 7.28125 16.7246 8.236 17.2715 8.96973C17.8229 9.69889 18.6432 10.0635 19.7324 10.0635C20.735 10.0635 21.4984 9.67839 22.0225 8.9082C22.3005 8.5026 22.5078 7.9694 22.6445 7.30859H23.9707C23.8522 8.36589 23.4603 9.25228 22.7949 9.96777C21.9974 10.8291 20.9219 11.2598 19.5684 11.2598C18.4017 11.2598 17.4219 10.9066 16.6289 10.2002C15.5853 9.26595 15.0635 7.82357 15.0635 5.87305C15.0635 4.39193 15.4554 3.17741 16.2393 2.22949C17.0869 1.19954 18.2559 0.68457 19.7461 0.68457ZM28.373 10.207C29.1888 10.207 29.7471 9.89941 30.0479 9.28418C30.3532 8.66439 30.5059 7.97624 30.5059 7.21973C30.5059 6.53613 30.3965 5.98014 30.1777 5.55176C29.8314 4.87728 29.2344 4.54004 28.3867 4.54004C27.6348 4.54004 27.0879 4.82715 26.7461 5.40137C26.4043 5.97559 26.2334 6.66829 26.2334 7.47949C26.2334 8.25879 26.4043 8.9082 26.7461 9.42773C27.0879 9.94727 27.6302 10.207 28.373 10.207ZM28.4209 3.4668C29.3643 3.4668 30.1618 3.78125 30.8135 4.41016C31.4652 5.03906 31.791 5.96419 31.791 7.18555C31.791 8.36589 31.5039 9.34115 30.9297 10.1113C30.3555 10.8815 29.4645 11.2666 28.2568 11.2666C27.2497 11.2666 26.4499 10.9271 25.8574 10.248C25.265 9.56445 24.9688 8.64844 24.9688 7.5C24.9688 6.26953 25.2809 5.28971 25.9053 4.56055C26.5296 3.83138 27.3682 3.4668 28.4209 3.4668ZM36.3506 10.1729C36.9248 10.1729 37.401 9.93359 37.7793 9.45508C38.1621 8.97201 38.3535 8.25195 38.3535 7.29492C38.3535 6.71159 38.2692 6.21029 38.1006 5.79102C37.7816 4.98438 37.1982 4.58105 36.3506 4.58105C35.4984 4.58105 34.915 5.00716 34.6006 5.85938C34.432 6.3151 34.3477 6.89388 34.3477 7.5957C34.3477 8.16081 34.432 8.6416 34.6006 9.03809C34.9196 9.7946 35.5029 10.1729 36.3506 10.1729ZM33.165 3.71289H34.3613V4.68359C34.6074 4.35091 34.8763 4.09342 35.168 3.91113C35.5827 3.6377 36.0703 3.50098 36.6309 3.50098C37.4603 3.50098 38.1644 3.81999 38.7432 4.45801C39.3219 5.09147 39.6113 5.99837 39.6113 7.17871C39.6113 8.77376 39.1943 9.91309 38.3604 10.5967C37.8317 11.0296 37.2165 11.2461 36.5146 11.2461C35.9632 11.2461 35.5007 11.1253 35.127 10.8838C34.9082 10.7471 34.6644 10.5124 34.3955 10.1797V13.9189H33.165V3.71289ZM45.627 3.67871H46.9873C46.8141 4.14811 46.429 5.21908 45.832 6.8916C45.3854 8.14941 45.0117 9.1748 44.7109 9.96777C44 11.8363 43.4987 12.9756 43.207 13.3857C42.9154 13.7959 42.4141 14.001 41.7031 14.001C41.5299 14.001 41.3955 13.9941 41.2998 13.9805C41.2087 13.9668 41.0947 13.9417 40.958 13.9053V12.7842C41.1722 12.8434 41.3271 12.8799 41.4229 12.8936C41.5186 12.9072 41.6029 12.9141 41.6758 12.9141C41.9036 12.9141 42.07 12.8753 42.1748 12.7979C42.2842 12.7249 42.3753 12.6338 42.4482 12.5244C42.471 12.488 42.5531 12.3011 42.6943 11.9639C42.8356 11.6266 42.9382 11.376 43.002 11.2119L40.2949 3.67871H41.6895L43.6514 9.63965L45.627 3.67871ZM48.0879 3.67871H49.2568V4.94336C49.3525 4.69727 49.5872 4.39876 49.9609 4.04785C50.3346 3.69238 50.7653 3.51465 51.2529 3.51465C51.2757 3.51465 51.3145 3.51693 51.3691 3.52148C51.4238 3.52604 51.5173 3.53516 51.6494 3.54883V4.84766C51.5765 4.83398 51.5081 4.82487 51.4443 4.82031C51.3851 4.81576 51.319 4.81348 51.2461 4.81348C50.6263 4.81348 50.1501 5.014 49.8174 5.41504C49.4847 5.81152 49.3184 6.26953 49.3184 6.78906V11H48.0879V3.67871ZM52.7158 3.71289H53.9668V11H52.7158V3.71289ZM52.7158 0.958008H53.9668V2.35254H52.7158V0.958008ZM58.417 3.54883C58.9912 3.54883 59.4925 3.6901 59.9209 3.97266C60.1533 4.13216 60.3903 4.36458 60.6318 4.66992V3.74707H61.7666V10.4053C61.7666 11.335 61.6299 12.0687 61.3564 12.6064C60.846 13.5999 59.8822 14.0967 58.4648 14.0967C57.6764 14.0967 57.0133 13.9189 56.4756 13.5635C55.9378 13.2126 55.637 12.6611 55.5732 11.9092H56.8242C56.8835 12.2373 57.002 12.4902 57.1797 12.668C57.4577 12.9414 57.8952 13.0781 58.4922 13.0781C59.4355 13.0781 60.0531 12.7454 60.3447 12.0801C60.5179 11.6882 60.5977 10.9886 60.584 9.98145C60.3379 10.3551 60.0417 10.6331 59.6953 10.8154C59.349 10.9977 58.891 11.0889 58.3213 11.0889C57.5283 11.0889 56.8333 10.8086 56.2363 10.248C55.6439 9.68294 55.3477 8.75098 55.3477 7.45215C55.3477 6.22624 55.6462 5.26921 56.2432 4.58105C56.8447 3.8929 57.5693 3.54883 58.417 3.54883ZM60.6318 7.30859C60.6318 6.40169 60.445 5.72949 60.0713 5.29199C59.6976 4.85449 59.2214 4.63574 58.6426 4.63574C57.7767 4.63574 57.1842 5.04134 56.8652 5.85254C56.6966 6.28548 56.6123 6.85286 56.6123 7.55469C56.6123 8.37956 56.7786 9.00846 57.1113 9.44141C57.4486 9.86979 57.8997 10.084 58.4648 10.084C59.349 10.084 59.971 9.68522 60.3311 8.8877C60.5316 8.43652 60.6318 7.91016 60.6318 7.30859ZM63.626 0.923828H64.8564V4.66992C65.1481 4.30078 65.4102 4.04102 65.6426 3.89062C66.0391 3.63086 66.5335 3.50098 67.126 3.50098C68.1878 3.50098 68.9079 3.8724 69.2861 4.61523C69.4912 5.02083 69.5938 5.58366 69.5938 6.30371V11H68.3291V6.38574C68.3291 5.84798 68.2607 5.45378 68.124 5.20312C67.9007 4.80208 67.4814 4.60156 66.8662 4.60156C66.3558 4.60156 65.8932 4.77702 65.4785 5.12793C65.0638 5.47884 64.8564 6.14193 64.8564 7.11719V11H63.626V0.923828ZM71.665 1.63477H72.9092V3.67871H74.0781V4.68359H72.9092V9.46191C72.9092 9.71712 72.9958 9.88802 73.1689 9.97461C73.2646 10.0247 73.4242 10.0498 73.6475 10.0498C73.7067 10.0498 73.7705 10.0498 73.8389 10.0498C73.9072 10.0452 73.987 10.0384 74.0781 10.0293V11C73.9368 11.041 73.7887 11.0706 73.6338 11.0889C73.4834 11.1071 73.3193 11.1162 73.1416 11.1162C72.5674 11.1162 72.1777 10.9704 71.9727 10.6787C71.7676 10.3825 71.665 9.99967 71.665 9.53027V4.68359H70.6738V3.67871H71.665V1.63477ZM78.7471 11C78.7926 10.1569 78.9658 9.42318 79.2666 8.79883C79.5719 8.17448 80.1644 7.6071 81.0439 7.09668L82.3564 6.33789C82.9443 5.99609 83.3568 5.70443 83.5938 5.46289C83.9674 5.08464 84.1543 4.65169 84.1543 4.16406C84.1543 3.5944 83.9834 3.14323 83.6416 2.81055C83.2998 2.47331 82.8441 2.30469 82.2744 2.30469C81.4313 2.30469 80.848 2.6237 80.5244 3.26172C80.3512 3.60352 80.2555 4.07747 80.2373 4.68359H78.9863C79 3.83138 79.1572 3.13639 79.458 2.59863C79.9912 1.65072 80.9323 1.17676 82.2812 1.17676C83.4023 1.17676 84.2204 1.47982 84.7354 2.08594C85.2549 2.69206 85.5146 3.36654 85.5146 4.10938C85.5146 4.89323 85.2389 5.56315 84.6875 6.11914C84.3685 6.44271 83.7965 6.83464 82.9717 7.29492L82.0352 7.81445C81.5885 8.06055 81.2376 8.29525 80.9824 8.51855C80.5267 8.91504 80.2396 9.35482 80.1211 9.83789H85.4668V11H78.7471ZM89.8896 1.21094C91.1566 1.21094 92.0726 1.73275 92.6377 2.77637C93.0752 3.58301 93.2939 4.68815 93.2939 6.0918C93.2939 7.42253 93.0957 8.52311 92.6992 9.39355C92.125 10.6423 91.1862 11.2666 89.8828 11.2666C88.707 11.2666 87.832 10.7562 87.2578 9.73535C86.7793 8.88314 86.54 7.73926 86.54 6.30371C86.54 5.19173 86.6836 4.23698 86.9707 3.43945C87.5085 1.95378 88.4814 1.21094 89.8896 1.21094ZM89.876 10.1455C90.514 10.1455 91.0221 9.86296 91.4004 9.29785C91.7786 8.73275 91.9678 7.68001 91.9678 6.13965C91.9678 5.02767 91.8311 4.11393 91.5576 3.39844C91.2842 2.67839 90.7533 2.31836 89.9648 2.31836C89.2402 2.31836 88.7093 2.66016 88.3721 3.34375C88.0394 4.02279 87.873 5.02539 87.873 6.35156C87.873 7.34961 87.9801 8.15169 88.1943 8.75781C88.5225 9.68294 89.083 10.1455 89.876 10.1455ZM94.333 11C94.3786 10.1569 94.5518 9.42318 94.8525 8.79883C95.1579 8.17448 95.7503 7.6071 96.6299 7.09668L97.9424 6.33789C98.5303 5.99609 98.9427 5.70443 99.1797 5.46289C99.5534 5.08464 99.7402 4.65169 99.7402 4.16406C99.7402 3.5944 99.5693 3.14323 99.2275 2.81055C98.8857 2.47331 98.43 2.30469 97.8604 2.30469C97.0173 2.30469 96.4339 2.6237 96.1104 3.26172C95.9372 3.60352 95.8415 4.07747 95.8232 4.68359H94.5723C94.5859 3.83138 94.7432 3.13639 95.0439 2.59863C95.5771 1.65072 96.5182 1.17676 97.8672 1.17676C98.9883 1.17676 99.8063 1.47982 100.321 2.08594C100.841 2.69206 101.101 3.36654 101.101 4.10938C101.101 4.89323 100.825 5.56315 100.273 6.11914C99.9544 6.44271 99.3825 6.83464 98.5576 7.29492L97.6211 7.81445C97.1745 8.06055 96.8236 8.29525 96.5684 8.51855C96.1126 8.91504 95.8255 9.35482 95.707 9.83789H101.053V11H94.333ZM102.126 11C102.172 10.1569 102.345 9.42318 102.646 8.79883C102.951 8.17448 103.543 7.6071 104.423 7.09668L105.735 6.33789C106.323 5.99609 106.736 5.70443 106.973 5.46289C107.346 5.08464 107.533 4.65169 107.533 4.16406C107.533 3.5944 107.362 3.14323 107.021 2.81055C106.679 2.47331 106.223 2.30469 105.653 2.30469C104.81 2.30469 104.227 2.6237 103.903 3.26172C103.73 3.60352 103.634 4.07747 103.616 4.68359H102.365C102.379 3.83138 102.536 3.13639 102.837 2.59863C103.37 1.65072 104.311 1.17676 105.66 1.17676C106.781 1.17676 107.599 1.47982 108.114 2.08594C108.634 2.69206 108.894 3.36654 108.894 4.10938C108.894 4.89323 108.618 5.56315 108.066 6.11914C107.747 6.44271 107.175 6.83464 106.351 7.29492L105.414 7.81445C104.967 8.06055 104.617 8.29525 104.361 8.51855C103.906 8.91504 103.618 9.35482 103.5 9.83789H108.846V11H102.126ZM118.3 9.83789C118.76 9.83789 119.138 9.79004 119.435 9.69434C119.963 9.5166 120.396 9.1748 120.733 8.66895C121.002 8.26335 121.196 7.74382 121.314 7.11035C121.383 6.7321 121.417 6.38118 121.417 6.05762C121.417 4.81348 121.169 3.84733 120.672 3.15918C120.18 2.47103 119.384 2.12695 118.286 2.12695H115.873V9.83789H118.3ZM114.506 0.958008H118.573C119.954 0.958008 121.025 1.44792 121.786 2.42773C122.465 3.31185 122.805 4.44434 122.805 5.8252C122.805 6.8916 122.604 7.85547 122.203 8.7168C121.497 10.2389 120.282 11 118.56 11H114.506V0.958008ZM124.691 0.958008H132.013V2.18848H126.018V5.2373H131.562V6.39941H126.018V9.80371H132.115V11H124.691V0.958008ZM134.788 7.75977C134.82 8.32943 134.954 8.79199 135.191 9.14746C135.643 9.81283 136.438 10.1455 137.577 10.1455C138.088 10.1455 138.552 10.0726 138.972 9.92676C139.783 9.64421 140.188 9.13835 140.188 8.40918C140.188 7.8623 140.018 7.47266 139.676 7.24023C139.329 7.01237 138.787 6.81413 138.049 6.64551L136.688 6.33789C135.8 6.13737 135.171 5.91634 134.802 5.6748C134.164 5.25553 133.845 4.62891 133.845 3.79492C133.845 2.89258 134.157 2.15202 134.781 1.57324C135.406 0.994466 136.29 0.705078 137.434 0.705078C138.486 0.705078 139.38 0.960286 140.113 1.4707C140.852 1.97656 141.221 2.78776 141.221 3.9043H139.942C139.874 3.36654 139.728 2.9541 139.505 2.66699C139.09 2.1429 138.386 1.88086 137.393 1.88086C136.59 1.88086 136.014 2.04948 135.663 2.38672C135.312 2.72396 135.137 3.11589 135.137 3.5625C135.137 4.05469 135.342 4.41471 135.752 4.64258C136.021 4.78841 136.629 4.9707 137.577 5.18945L138.985 5.51074C139.664 5.66569 140.188 5.8776 140.558 6.14648C141.196 6.61589 141.515 7.2972 141.515 8.19043C141.515 9.30241 141.109 10.0977 140.298 10.5762C139.491 11.0547 138.552 11.2939 137.481 11.2939C136.233 11.2939 135.255 10.9749 134.549 10.3369C133.842 9.70345 133.496 8.8444 133.51 7.75977H134.788ZM143.545 0.958008H144.919V11H143.545V0.958008ZM151.475 0.698242C152.418 0.698242 153.234 0.880534 153.922 1.24512C154.92 1.76921 155.531 2.6875 155.754 4H154.407C154.243 3.26628 153.904 2.73307 153.389 2.40039C152.874 2.06315 152.224 1.89453 151.44 1.89453C150.511 1.89453 149.727 2.24316 149.089 2.94043C148.455 3.6377 148.139 4.67676 148.139 6.05762C148.139 7.25163 148.401 8.22461 148.925 8.97656C149.449 9.72396 150.303 10.0977 151.488 10.0977C152.395 10.0977 153.145 9.83561 153.737 9.31152C154.334 8.78288 154.64 7.93066 154.653 6.75488H151.509V5.62695H155.918V11H155.043L154.715 9.70801C154.255 10.2139 153.847 10.5648 153.491 10.7607C152.894 11.098 152.135 11.2666 151.215 11.2666C150.025 11.2666 149.002 10.8815 148.146 10.1113C147.211 9.14518 146.744 7.81901 146.744 6.13281C146.744 4.45117 147.2 3.11361 148.111 2.12012C148.977 1.1722 150.098 0.698242 151.475 0.698242ZM158.03 0.958008H159.637L164.709 9.09277V0.958008H166.001V11H164.477L159.329 2.87207V11H158.03V0.958008ZM168.277 0.958008H175.599V2.18848H169.604V5.2373H175.147V6.39941H169.604V9.80371H175.701V11H168.277V0.958008ZM181.341 9.83789C181.801 9.83789 182.179 9.79004 182.476 9.69434C183.004 9.5166 183.437 9.1748 183.774 8.66895C184.043 8.26335 184.237 7.74382 184.355 7.11035C184.424 6.7321 184.458 6.38118 184.458 6.05762C184.458 4.81348 184.21 3.84733 183.713 3.15918C183.221 2.47103 182.425 2.12695 181.327 2.12695H178.914V9.83789H181.341ZM177.547 0.958008H181.614C182.995 0.958008 184.066 1.44792 184.827 2.42773C185.506 3.31185 185.846 4.44434 185.846 5.8252C185.846 6.8916 185.645 7.85547 185.244 8.7168C184.538 10.2389 183.323 11 181.601 11H177.547V0.958008ZM195.272 5.20312C195.847 5.20312 196.293 5.12337 196.612 4.96387C197.114 4.71322 197.364 4.26204 197.364 3.61035C197.364 2.9541 197.098 2.51204 196.564 2.28418C196.264 2.15658 195.817 2.09277 195.225 2.09277H192.798V5.20312H195.272ZM195.73 9.83789C196.564 9.83789 197.159 9.59635 197.515 9.11328C197.738 8.80794 197.85 8.4388 197.85 8.00586C197.85 7.27669 197.524 6.77995 196.872 6.51562C196.526 6.37435 196.068 6.30371 195.498 6.30371H192.798V9.83789H195.73ZM191.465 0.958008H195.778C196.954 0.958008 197.79 1.30892 198.287 2.01074C198.579 2.42546 198.725 2.90397 198.725 3.44629C198.725 4.07975 198.545 4.59928 198.185 5.00488C197.998 5.21908 197.729 5.41504 197.378 5.59277C197.893 5.78874 198.278 6.00977 198.533 6.25586C198.984 6.69336 199.21 7.2972 199.21 8.06738C199.21 8.71452 199.007 9.30013 198.602 9.82422C197.995 10.6081 197.032 11 195.71 11H191.465V0.958008ZM200.058 0.958008H201.644L204.528 5.78418L207.413 0.958008H209.006L205.212 6.95312V11H203.852V6.95312L200.058 0.958008ZM213.955 0.958008H221.276V2.18848H215.281V5.2373H220.825V6.39941H215.281V9.80371H221.379V11H213.955V0.958008ZM223.163 0.958008H224.523V9.80371H229.609V11H223.163V0.958008ZM231.086 0.958008H238.407V2.18848H232.412V5.2373H237.956V6.39941H232.412V9.80371H238.51V11H231.086V0.958008ZM240.294 0.958008H241.9L246.973 9.09277V0.958008H248.265V11H246.74L241.593 2.87207V11H240.294V0.958008ZM255.565 6.88477L254.041 2.44824L252.421 6.88477H255.565ZM253.33 0.958008H254.868L258.512 11H257.021L256.003 7.99219H252.031L250.944 11H249.55L253.33 0.958008ZM263.01 0.958008H267.528C268.422 0.958008 269.142 1.21094 269.688 1.7168C270.235 2.2181 270.509 2.92448 270.509 3.83594C270.509 4.61979 270.265 5.30339 269.777 5.88672C269.29 6.46549 268.54 6.75488 267.528 6.75488H264.37V11H263.01V0.958008ZM269.135 3.84277C269.135 3.10449 268.861 2.60319 268.314 2.33887C268.014 2.19759 267.601 2.12695 267.077 2.12695H264.37V5.60645H267.077C267.688 5.60645 268.182 5.47656 268.561 5.2168C268.943 4.95703 269.135 4.49902 269.135 3.84277ZM272.525 0.958008H273.899V11H272.525V0.958008ZM277.003 7.75977C277.035 8.32943 277.169 8.79199 277.406 9.14746C277.857 9.81283 278.653 10.1455 279.792 10.1455C280.302 10.1455 280.767 10.0726 281.187 9.92676C281.998 9.64421 282.403 9.13835 282.403 8.40918C282.403 7.8623 282.232 7.47266 281.891 7.24023C281.544 7.01237 281.002 6.81413 280.264 6.64551L278.903 6.33789C278.015 6.13737 277.386 5.91634 277.017 5.6748C276.379 5.25553 276.06 4.62891 276.06 3.79492C276.06 2.89258 276.372 2.15202 276.996 1.57324C277.62 0.994466 278.505 0.705078 279.648 0.705078C280.701 0.705078 281.594 0.960286 282.328 1.4707C283.066 1.97656 283.436 2.78776 283.436 3.9043H282.157C282.089 3.36654 281.943 2.9541 281.72 2.66699C281.305 2.1429 280.601 1.88086 279.607 1.88086C278.805 1.88086 278.229 2.04948 277.878 2.38672C277.527 2.72396 277.352 3.11589 277.352 3.5625C277.352 4.05469 277.557 4.41471 277.967 4.64258C278.236 4.78841 278.844 4.9707 279.792 5.18945L281.2 5.51074C281.879 5.66569 282.403 5.8776 282.772 6.14648C283.41 6.61589 283.729 7.2972 283.729 8.19043C283.729 9.30241 283.324 10.0977 282.513 10.5762C281.706 11.0547 280.767 11.2939 279.696 11.2939C278.448 11.2939 277.47 10.9749 276.764 10.3369C276.057 9.70345 275.711 8.8444 275.725 7.75977H277.003ZM285.452 0.958008H286.778V5.85254L291.673 0.958008H293.553L289.376 5.00488L293.669 11H291.898L288.385 5.96191L286.778 7.5V11H285.452V0.958008ZM299.944 6.88477L298.42 2.44824L296.8 6.88477H299.944ZM297.709 0.958008H299.247L302.891 11H301.4L300.382 7.99219H296.41L295.323 11H293.929L297.709 0.958008ZM308.797 5.55859C309.435 5.55859 309.938 5.43099 310.308 5.17578C310.681 4.92057 310.868 4.46029 310.868 3.79492C310.868 3.07943 310.608 2.5918 310.089 2.33203C309.811 2.19531 309.439 2.12695 308.975 2.12695H305.652V5.55859H308.797ZM304.292 0.958008H308.94C309.706 0.958008 310.337 1.06966 310.834 1.29297C311.777 1.72135 312.249 2.51204 312.249 3.66504C312.249 4.2666 312.124 4.75879 311.873 5.1416C311.627 5.52441 311.281 5.83203 310.834 6.06445C311.226 6.22396 311.52 6.43359 311.716 6.69336C311.916 6.95312 312.028 7.37467 312.051 7.95801L312.099 9.30469C312.112 9.6875 312.144 9.97233 312.194 10.1592C312.276 10.4782 312.422 10.6833 312.632 10.7744V11H310.964C310.918 10.9134 310.882 10.8018 310.854 10.665C310.827 10.5283 310.804 10.264 310.786 9.87207L310.704 8.19727C310.672 7.54102 310.428 7.10124 309.973 6.87793C309.713 6.75488 309.305 6.69336 308.749 6.69336H305.652V11H304.292V0.958008ZM314.375 0.958008H321.696V2.18848H315.701V5.2373H321.245V6.39941H315.701V9.80371H321.799V11H314.375V0.958008ZM324.376 0.958008L327.261 9.50977L330.111 0.958008H331.636L327.972 11H326.529L322.872 0.958008H324.376ZM337.036 6.88477L335.512 2.44824L333.892 6.88477H337.036ZM334.801 0.958008H336.339L339.982 11H338.492L337.474 7.99219H333.502L332.415 11H331.021L334.801 0.958008Z" fill="#F8F7F7" fill-opacity="0.45"/>
</svg>
