<svg width="26" height="26" viewBox="0 0 26 26" fill="none" xmlns="http://www.w3.org/2000/svg">
<g clip-path="url(#clip0_270_383)">
<path d="M0.000184591 11.7286C0.0336514 9.44237 1.27192 6.36059 3.78937 3.83271C5.63096 1.99411 7.98165 0.74971 10.5378 0.26025C13.094 -0.22921 15.7383 0.0587461 18.1291 1.08692C20.52 2.1151 22.5475 3.83628 23.9499 6.02815C25.3524 8.22001 26.0652 10.7819 25.9965 13.3829C25.9155 16.791 24.4933 20.0297 22.0386 22.396C19.5838 24.7623 16.2947 26.0653 12.8849 26.0223C5.54824 25.948 -0.0370008 19.9665 0.000184591 11.7286ZM5.13176 13.0335V19.8736C5.11934 20.0041 5.13571 20.1358 5.17974 20.2593C5.22378 20.3828 5.29438 20.4951 5.38659 20.5884C5.47879 20.6816 5.59034 20.7535 5.71337 20.7989C5.83639 20.8443 5.96789 20.8622 6.09858 20.8513C10.6649 20.8513 15.2288 20.8513 19.7902 20.8513C19.9974 20.845 20.1996 20.7861 20.3778 20.6803C20.5241 20.5767 20.639 20.4349 20.7099 20.2702C20.7807 20.1056 20.8048 19.9246 20.7794 19.7472V6.31225C20.7794 6.25278 20.7794 6.1933 20.7794 6.13382C20.7825 6.00497 20.7584 5.87691 20.7085 5.75804C20.6587 5.63917 20.5843 5.53217 20.4902 5.44407C20.3961 5.35596 20.2844 5.28874 20.1625 5.24681C20.0406 5.20487 19.9112 5.18917 19.7828 5.20073H6.10974C5.97766 5.18728 5.84425 5.20345 5.71923 5.24806C5.5942 5.29268 5.48071 5.36462 5.38701 5.45865C5.29332 5.55267 5.22179 5.66641 5.17763 5.79157C5.13347 5.91673 5.11781 6.05016 5.13176 6.18214V13.0335Z" fill="#E29542"/>
<path d="M18.1882 12.4722C18.1064 13.1005 18.0432 13.6953 17.9539 14.2864C17.8833 14.751 17.8684 14.7473 17.3999 14.7473C16.9313 14.7473 16.5669 14.7473 16.1541 14.7473C15.9385 14.7473 15.8753 14.7994 15.8753 15.0187C15.8753 16.8403 15.8753 18.6581 15.8753 20.4797C15.8753 20.7771 15.8753 20.7771 15.5815 20.7771C14.9716 20.7771 14.3618 20.7771 13.7557 20.7771C13.5549 20.7771 13.5028 20.7139 13.5028 20.5206C13.5028 18.7548 13.5028 16.9852 13.5028 15.2194C13.5028 14.673 13.5586 14.7548 13.0231 14.751C12.5695 14.751 12.1158 14.751 11.6622 14.751C11.5097 14.751 11.4502 14.7064 11.4502 14.5466C11.4502 13.9258 11.4502 13.3012 11.4502 12.6878C11.4502 12.5317 11.5023 12.4797 11.6584 12.4797C12.179 12.4797 12.6996 12.4797 13.2202 12.4797C13.4508 12.4797 13.5103 12.4053 13.5065 12.1823C13.5065 11.5986 13.4805 11.0075 13.5065 10.4239C13.5698 9.1265 14.2503 8.04844 15.6187 7.73989C16.0264 7.67148 16.44 7.64408 16.8532 7.6581C17.2585 7.6581 17.6676 7.69529 18.0729 7.70272C18.2291 7.70272 18.2811 7.76591 18.2811 7.91833C18.2811 8.46108 18.2811 9.00383 18.2811 9.54286C18.2811 9.70643 18.2328 9.76591 18.0655 9.76591C17.5895 9.76591 17.1135 9.76591 16.6413 9.81424C16.4295 9.82765 16.2313 9.92276 16.0884 10.0795C15.9455 10.2363 15.869 10.4424 15.8753 10.6544C15.8567 11.2046 15.8753 11.7696 15.8753 12.3049C15.8753 12.4722 15.9757 12.476 16.0946 12.476H18.1845L18.1882 12.4722Z" fill="#E29542"/>
</g>
<defs>
<clipPath id="clip0_270_383">
<rect width="26" height="26" fill="white"/>
</clipPath>
</defs>
</svg>
