<svg width="26" height="26" viewBox="0 0 26 26" fill="none" xmlns="http://www.w3.org/2000/svg">
<g clip-path="url(#clip0_270_386)">
<path d="M13.0016 26.0037C10.428 26.0037 7.91213 25.2394 5.77266 23.8076C3.63318 22.3758 1.96626 20.3409 0.982886 17.9605C-0.000484417 15.58 -0.256086 12.9611 0.248454 10.4352C0.752993 7.90927 1.99499 5.58998 3.8172 3.77089C5.63941 1.95181 7.9599 0.714734 10.4849 0.216267C13.01 -0.282201 15.626 -0.0196484 18.0019 0.970692C20.3777 1.96103 22.4066 3.63463 23.8316 5.77962C25.2567 7.92461 26.0138 10.4445 26.0072 13.0204C26.0097 14.7289 25.6747 16.4211 25.0216 17.9996C24.3684 19.5781 23.41 21.0118 22.2014 22.2183C20.9928 23.4249 19.5578 24.3804 17.979 25.03C16.4002 25.6797 14.7087 26.0106 13.0016 26.0037ZM13.1428 21.883V21.8458C14.1981 21.8458 15.2497 21.8458 16.305 21.8458C16.823 21.839 17.3398 21.793 17.8508 21.7082C18.7839 21.5711 19.6504 21.144 20.3278 20.4873C21.0052 19.8307 21.4594 18.9776 21.6262 18.0486C21.7838 17.1051 21.851 16.1487 21.8268 15.1924C21.8491 13.4853 21.8268 11.7745 21.7897 10.0675C21.785 9.48157 21.7241 8.89747 21.6076 8.32324C21.4695 7.53641 21.1198 6.80211 20.596 6.19927C20.0723 5.59643 19.3943 5.14783 18.6349 4.9017C17.8903 4.66976 17.1146 4.55312 16.3348 4.55583C15.4095 4.52236 14.4768 4.5112 13.5553 4.5112C12.4777 4.5112 11.4001 4.51119 10.3262 4.5521C9.74082 4.56513 9.15658 4.60983 8.57602 4.686C7.65963 4.80213 6.80068 5.19612 6.11452 5.81505C5.42837 6.43399 4.94785 7.24823 4.73751 8.14845C4.54975 9.0268 4.46865 9.92464 4.49598 10.8225C4.47369 12.5853 4.49599 14.3444 4.52572 16.1035C4.52672 16.6963 4.57268 17.288 4.6632 17.8738C4.77549 18.7087 5.12157 19.4947 5.66143 20.141C6.20128 20.7872 6.91288 21.2674 7.71394 21.5259C8.5908 21.7825 9.50207 21.9017 10.4154 21.8792C11.2998 21.9053 12.2213 21.883 13.1428 21.883Z" fill="#E29542"/>
<path d="M13.1283 20.3172C12.1845 20.3172 11.2406 20.3433 10.2968 20.3172C9.64549 20.3071 8.99686 20.2311 8.36083 20.0904C7.04912 19.7668 6.34311 18.8445 6.1313 17.5391C5.99821 16.4112 5.95225 15.2748 5.99382 14.1399C5.99382 12.9646 5.97152 11.7894 5.99382 10.6179C5.96927 9.86073 6.04803 9.10373 6.22792 8.36786C6.37427 7.81705 6.67912 7.32141 7.10456 6.94255C7.53001 6.56368 8.05731 6.31828 8.62094 6.23685C9.08712 6.15324 9.55941 6.10845 10.033 6.10295C11.6234 6.0732 13.2101 6.05089 14.8005 6.05833C15.644 6.05833 16.4912 6.11039 17.331 6.19221C18.0393 6.24007 18.7075 6.5382 19.2166 7.03341C19.7257 7.52862 20.0425 8.18872 20.1104 8.89598C20.1673 9.32265 20.1983 9.75236 20.2033 10.1828C20.2256 11.9568 20.2591 13.7345 20.2368 15.5085C20.2659 16.302 20.1998 17.0961 20.0398 17.8738C19.9121 18.4751 19.5992 19.0213 19.1454 19.4355C18.6915 19.8498 18.1194 20.1113 17.5093 20.1833C16.7662 20.28 16.023 20.2986 15.2798 20.321C14.5366 20.3433 13.8417 20.321 13.1209 20.321L13.1283 20.3172ZM13.1283 17.6395C14.0102 17.6395 14.8723 17.3778 15.6056 16.8874C16.3389 16.397 16.9104 15.7 17.2479 14.8845C17.5854 14.069 17.6737 13.1717 17.5017 12.306C17.3296 11.4402 16.9049 10.645 16.2813 10.0209C15.6577 9.39674 14.8632 8.97169 13.9982 8.79949C13.1332 8.62729 12.2367 8.71567 11.4219 9.05345C10.6071 9.39124 9.91071 9.96326 9.42074 10.6972C8.93077 11.4311 8.66925 12.2939 8.66925 13.1766C8.66284 13.7642 8.77331 14.3473 8.99424 14.8917C9.21518 15.4362 9.54215 15.9312 9.95611 16.3479C10.3701 16.7647 10.8627 17.0948 11.4054 17.3191C11.9481 17.5434 12.53 17.6574 13.1172 17.6544L13.1283 17.6395ZM17.788 9.57656C17.9235 9.57968 18.0582 9.55508 18.1839 9.50426C18.3096 9.45345 18.4236 9.37749 18.5189 9.28105C18.6142 9.1846 18.6888 9.0697 18.7382 8.94337C18.7876 8.81705 18.8108 8.68196 18.8062 8.54638C18.8146 8.40664 18.7943 8.26664 18.7467 8.13501C18.6991 8.00339 18.625 7.88291 18.5291 7.78098C18.4332 7.67905 18.3175 7.59783 18.1891 7.54231C18.0607 7.48679 17.9223 7.45816 17.7824 7.45816C17.6426 7.45816 17.5042 7.48679 17.3758 7.54231C17.2473 7.59783 17.1316 7.67905 17.0358 7.78098C16.9399 7.88291 16.8658 8.00339 16.8182 8.13501C16.7705 8.26664 16.7503 8.40664 16.7587 8.54638C16.752 8.68318 16.7736 8.81989 16.8221 8.94798C16.8705 9.07607 16.9449 9.19278 17.0404 9.29084C17.1359 9.38891 17.2506 9.46621 17.3773 9.51793C17.5041 9.56965 17.6401 9.59467 17.7769 9.59144L17.788 9.57656Z" fill="#E29542"/>
<path d="M13.132 16.1036C12.5582 16.0999 11.9984 15.926 11.5233 15.604C11.0481 15.2819 10.6791 14.8261 10.4627 14.2942C10.2464 13.7623 10.1924 13.1781 10.3077 12.6155C10.423 12.0529 10.7023 11.5371 11.1104 11.1334C11.5185 10.7296 12.037 10.456 12.6004 10.3471C13.1638 10.2382 13.7468 10.299 14.2758 10.5216C14.8047 10.7443 15.2558 11.1189 15.5721 11.5981C15.8884 12.0773 16.0556 12.6395 16.0527 13.2138C16.0512 13.5957 15.9745 13.9736 15.8267 14.3257C15.679 14.6778 15.4633 14.9973 15.192 15.2658C14.9206 15.5343 14.599 15.7465 14.2455 15.8902C13.892 16.034 13.5136 16.1065 13.132 16.1036Z" fill="#E29542"/>
</g>
<defs>
<clipPath id="clip0_270_386">
<rect width="26" height="26" fill="white"/>
</clipPath>
</defs>
</svg>
