<svg width="26" height="26" viewBox="0 0 26 26" fill="none" xmlns="http://www.w3.org/2000/svg">
<g clip-path="url(#clip0_270_390)">
<path d="M13.015 -0.000138264C15.5881 0.00326323 18.1023 0.770664 20.2391 2.20485C22.3759 3.63903 24.0391 5.67546 25.0181 8.05618C25.9972 10.4369 26.2479 13.0548 25.7386 15.5782C25.2293 18.1016 23.9828 20.417 22.1571 22.231C20.3315 24.0451 18.0087 25.2762 15.4831 25.7684C12.9575 26.2606 10.3427 25.9918 7.9699 24.996C5.59714 24.0002 3.57318 22.3221 2.15441 20.1745C0.735644 18.0269 -0.0140784 15.5062 0.000200221 12.9319C-0.00266674 11.2253 0.332662 9.53512 0.986809 7.95901C1.64096 6.3829 2.60094 4.95217 3.81123 3.74958C5.02152 2.54699 6.4581 1.5964 8.03789 0.952775C9.61769 0.309151 11.3094 -0.0147317 13.015 -0.000138264ZM7.76582 5.28987C7.6604 5.28882 7.55516 5.29878 7.45181 5.31959C7.22547 5.3847 7.00303 5.46266 6.78557 5.5531C6.44451 5.67858 6.13309 5.87329 5.87085 6.12497C5.60861 6.37666 5.40123 6.67988 5.26175 7.0156C5.12227 7.35132 5.0537 7.71228 5.06034 8.07578C5.06698 8.43929 5.14869 8.79749 5.30034 9.12788C5.99187 10.8732 6.92772 12.5114 8.07984 13.9933C10.3349 16.8412 13.2961 19.0486 16.6687 20.3957C16.9994 20.5466 17.363 20.6109 17.7253 20.5825C18.2773 20.4941 18.8009 20.2776 19.2541 19.9502C19.7073 19.6229 20.0776 19.1938 20.3351 18.6974C20.7976 17.912 20.7043 17.3091 19.9871 16.7487C19.27 16.1883 18.417 15.5812 17.6023 15.0505C17.3216 14.8726 17.0035 14.7621 16.673 14.7278C16.0067 14.6429 15.5654 15.042 15.2005 15.543C15.1299 15.6747 15.0337 15.791 14.9177 15.8852C14.8017 15.9793 14.668 16.0494 14.5246 16.0913C14.3812 16.1332 14.2309 16.1461 14.0825 16.1292C13.934 16.1123 13.7904 16.066 13.6601 15.993C12.5219 15.5438 11.516 14.8135 10.7363 13.8702C10.2245 13.2882 9.84903 12.5992 9.63721 11.8536C9.56614 11.6178 9.57137 11.3657 9.65216 11.1331C9.73294 10.9005 9.88516 10.6995 10.087 10.5587C10.2483 10.4355 10.4223 10.3251 10.5793 10.1978C10.8217 10.04 10.9934 9.79431 11.0584 9.51237C11.1233 9.23043 11.0763 8.93429 10.9272 8.68635C10.3707 7.5461 9.60488 6.52068 8.66969 5.66349C8.55195 5.54351 8.41119 5.44858 8.25587 5.38438C8.10055 5.32017 7.93387 5.28803 7.76582 5.28987ZM20.4582 12.1295H20.5006C20.4501 11.6306 20.3736 11.1346 20.2715 10.6436C19.9079 9.21637 19.1284 7.92958 18.032 6.94679C16.9356 5.964 15.5718 5.32962 14.1141 5.12429C13.7846 5.08605 13.4529 5.06903 13.1211 5.07335C13.0575 5.0704 12.994 5.08061 12.9346 5.10336C12.8751 5.1261 12.821 5.16088 12.7756 5.20551C12.7302 5.25015 12.6945 5.30368 12.6707 5.36276C12.6469 5.42184 12.6356 5.48519 12.6374 5.54885C12.6374 5.77387 12.7732 5.90973 13.0617 5.97341C13.2357 5.99889 13.4139 6.00738 13.5922 6.03285C14.7878 6.17585 15.9361 6.58495 16.953 7.23011C17.218 7.41194 17.4678 7.61498 17.6999 7.83723C17.9322 8.05927 18.1451 8.30073 18.3364 8.55898C18.9314 9.46449 19.3117 10.4941 19.4482 11.5691C19.5034 11.896 19.5204 12.2272 19.5543 12.5583C19.5882 12.8895 19.7537 13.0508 20.0211 13.0508C20.2884 13.0508 20.4454 12.864 20.4454 12.5413C20.4582 12.4055 20.4582 12.2654 20.4582 12.1295ZM18.5486 11.5436H18.5825C18.5495 11.1971 18.4971 10.8526 18.4255 10.512C18.1231 9.48537 17.5037 8.58089 16.6561 7.92806C15.8084 7.27524 14.776 6.90757 13.7067 6.87773C13.6497 6.87004 13.5916 6.87407 13.5361 6.88956C13.4806 6.90505 13.4289 6.93168 13.384 6.96782C13.3392 7.00397 13.3021 7.04888 13.2752 7.09981C13.2482 7.15074 13.2319 7.20663 13.2272 7.26407C13.1763 7.55277 13.3333 7.72259 13.6855 7.80326C14.1947 7.91789 14.7125 8.02828 15.2132 8.18537C15.7395 8.333 16.2169 8.61865 16.5959 9.01276C16.9749 9.40687 17.2418 9.89513 17.3689 10.427C17.4962 10.9025 17.5726 11.3908 17.6574 11.879C17.7126 12.189 17.8611 12.346 18.1242 12.3291C18.3873 12.3121 18.5486 12.1507 18.5486 11.8408C18.5613 11.7389 18.5613 11.6583 18.5613 11.5436H18.5486ZM14.4578 8.73729C14.3492 8.74842 14.2415 8.76686 14.1353 8.79248C14.0314 8.81612 13.939 8.87525 13.8739 8.95971C13.8088 9.04418 13.7752 9.14868 13.7789 9.25525C13.7789 9.48451 13.9529 9.56943 14.1481 9.61613L14.3602 9.65858C14.7071 9.69097 15.034 9.83515 15.2919 10.0694C15.5498 10.3037 15.7247 10.6155 15.7903 10.9577C15.8158 11.0766 15.8243 11.1997 15.8455 11.3186C15.8558 11.4321 15.9072 11.5379 15.99 11.6161C16.0729 11.6943 16.1814 11.7395 16.2953 11.7432C16.4078 11.7432 16.5158 11.6984 16.5953 11.6188C16.6749 11.5392 16.7196 11.4312 16.7196 11.3186C16.7474 11.167 16.7474 11.0117 16.7196 10.8601C16.6239 10.3802 16.399 9.93561 16.0692 9.57423C15.7394 9.21285 15.3172 8.94842 14.8482 8.80946C14.7244 8.77592 14.5981 8.75179 14.4706 8.73729H14.4578Z" fill="#E29542"/>
</g>
<defs>
<clipPath id="clip0_270_390">
<rect width="26" height="26" fill="white"/>
</clipPath>
</defs>
</svg>
