<svg width="26" height="26" viewBox="0 0 26 26" fill="none" xmlns="http://www.w3.org/2000/svg">
<g clip-path="url(#clip0_270_392)">
<path d="M25.9998 13.0038C25.9994 15.5644 25.2426 18.0679 23.8245 20.2001C22.4064 22.3323 20.3901 23.9982 18.0285 24.989C15.667 25.9797 13.0654 26.2511 10.5502 25.769C8.03505 25.287 5.71825 24.073 3.89052 22.2793C2.0628 20.4857 0.805551 18.1923 0.276525 15.6869C-0.252501 13.1815 -0.029734 10.5757 0.916857 8.1964C1.86345 5.81712 3.49171 3.77033 5.59736 2.31284C7.70301 0.855345 10.1922 0.0520626 12.7528 0.00377661C14.4807 -0.0288087 16.1978 0.283372 17.8037 0.922078C19.4096 1.56078 20.872 2.5132 22.1054 3.72362C23.3388 4.93404 24.3185 6.37818 24.9872 7.9716C25.6559 9.56503 26.0001 11.2758 25.9998 13.0038ZM5.54232 20.1278C5.59621 20.1183 5.64953 20.1059 5.70205 20.0906L9.61377 19.0618C9.6975 19.0398 9.78645 19.0504 9.86265 19.0915C11.3733 19.8884 13.103 20.1701 14.7885 19.8938C15.6662 19.7556 16.5133 19.4666 17.2923 19.0395C18.8701 18.1863 20.1114 16.8228 20.8132 15.1722C21.515 13.5217 21.6356 11.6818 21.1553 9.95382C20.675 8.2258 19.6223 6.71198 18.1694 5.66013C16.7165 4.60828 14.9495 4.0807 13.1577 4.16377C12.105 4.21003 11.0725 4.46905 10.1227 4.9252C8.67519 5.61606 7.47133 6.72968 6.67012 8.11899C5.86891 9.50831 5.50805 11.1079 5.63519 12.7066C5.72624 13.8378 6.05674 14.9368 6.60476 15.9306C6.63546 15.9928 6.6446 16.0633 6.63076 16.1312C6.38929 17.0338 6.1404 17.9326 5.88779 18.8352L5.54232 20.1278Z" fill="#E29542"/>
<path d="M7.47044 18.226C7.52616 18.0291 7.57074 17.8545 7.61903 17.6762C7.77877 17.0968 7.93107 16.5211 8.09453 15.9454C8.10841 15.9025 8.11194 15.8569 8.10484 15.8123C8.09774 15.7678 8.08021 15.7256 8.05367 15.6891C7.66175 15.109 7.37272 14.4656 7.19926 13.7874C6.90699 12.759 6.87657 11.6739 7.11079 10.6307C7.34501 9.58759 7.83643 8.61959 8.54031 7.81481C9.49656 6.63818 10.854 5.85639 12.3517 5.61967C13.5213 5.38806 14.7324 5.48791 15.8483 5.90794C16.9642 6.32798 17.9404 7.05148 18.6669 7.99681C19.4379 8.93708 19.9169 10.0823 20.0451 11.2914C20.2104 12.6717 19.9332 14.0689 19.2537 15.2817C18.5741 16.4945 17.5271 17.4604 16.2634 18.0402C15.5703 18.3609 14.8256 18.5558 14.0642 18.6159C12.6728 18.7326 11.2807 18.3993 10.0931 17.6651C10.0475 17.6352 9.99596 17.6158 9.94204 17.6081C9.88811 17.6004 9.83316 17.6046 9.78106 17.6205C9.01952 17.8248 8.26169 18.0217 7.47044 18.226ZM10.9215 8.41652C10.8027 8.39168 10.6797 8.3963 10.5632 8.42997C10.4466 8.46363 10.34 8.52533 10.2528 8.60966C10.0923 8.76724 9.94905 8.94157 9.82563 9.12966C9.64066 9.43943 9.53057 9.78811 9.50413 10.1479C9.47769 10.5077 9.53562 10.8688 9.67332 11.2022C9.87903 11.7213 10.1607 12.207 10.5092 12.6434C11.5247 14.1206 13.0089 15.212 14.7218 15.7411C15.0683 15.8636 15.4377 15.9075 15.8033 15.8696C16.1689 15.8317 16.5215 15.7129 16.8355 15.522C17.072 15.3741 17.2638 15.1645 17.3901 14.9159C17.5165 14.6672 17.5726 14.3887 17.5525 14.1105C17.5559 14.0522 17.5408 13.9943 17.5095 13.9449C17.4782 13.8956 17.4321 13.8574 17.3779 13.8357C17.1958 13.7465 17.0064 13.6499 16.8281 13.5645C16.4566 13.3937 16.1111 13.2191 15.7471 13.0631C15.5316 12.974 15.4573 13.0148 15.3161 13.1968C15.1192 13.4531 14.9149 13.702 14.7069 13.9397C14.6717 13.995 14.6163 14.0344 14.5526 14.0497C14.4888 14.0649 14.4216 14.0548 14.3651 14.0214L14.1237 13.9137C13.0754 13.4601 12.2031 12.6779 11.6385 11.6851C11.5159 11.4845 11.5307 11.4177 11.6942 11.2394C11.8927 11.0459 12.0583 10.8213 12.1845 10.5745C12.2072 10.5256 12.2189 10.4724 12.2189 10.4185C12.2189 10.3646 12.2072 10.3114 12.1845 10.2625C11.9691 9.74624 11.7573 9.22995 11.5419 8.71738C11.5163 8.61444 11.4536 8.52455 11.3659 8.46492C11.2782 8.4053 11.1715 8.38014 11.0664 8.39424C11.0187 8.40502 10.9703 8.41246 10.9215 8.41652Z" fill="#E29542"/>
</g>
<defs>
<clipPath id="clip0_270_392">
<rect width="26" height="26" fill="white"/>
</clipPath>
</defs>
</svg>
