<svg width="75" height="48" viewBox="0 0 75 48" fill="none" xmlns="http://www.w3.org/2000/svg">
<rect width="75" height="48" rx="24" fill="#E29542"/>
<path d="M33.0934 25.2556L33.3808 27.172C33.3808 27.172 33.5341 27.2869 33.6108 27.2869H44.8212C45.2236 27.2869 45.6069 27.2869 45.7986 27.7468C45.8961 27.9493 45.9352 28.1749 45.9115 28.3983C45.8879 28.6218 45.8023 28.8342 45.6644 29.0116C45.5838 29.1257 45.4728 29.2149 45.3441 29.2691C45.2154 29.3232 45.0741 29.3403 44.9362 29.3182H33.3042C32.9125 29.3777 32.5127 29.2889 32.1831 29.0692C31.8535 28.8494 31.6177 28.5145 31.522 28.1301C31.3082 27.5061 31.148 26.865 31.0429 26.2138C30.4297 23.0327 29.8165 19.8516 29.2224 16.6322C29.2224 16.4597 29.1266 16.4215 28.9733 16.4215H27.4785C27.3385 16.4215 27.1999 16.3936 27.0707 16.3394C26.9416 16.2852 26.8245 16.2059 26.7264 16.106C26.6283 16.0061 26.5511 15.8876 26.4992 15.7575C26.4474 15.6274 26.422 15.4883 26.4246 15.3483V14.6584C26.4133 14.5532 26.425 14.4468 26.459 14.3466C26.4929 14.2465 26.5483 14.1549 26.6213 14.0783C26.6942 14.0017 26.783 13.9419 26.8814 13.9031C26.9798 13.8643 27.0855 13.8474 27.1911 13.8535H29.8739C30.1459 13.8419 30.4134 13.9255 30.6302 14.0899C30.8471 14.2543 30.9999 14.4892 31.0621 14.7542C31.2154 15.2716 31.216 15.746 31.3878 16.3639C31.4741 16.674 31.637 17.1496 31.637 17.1496H46.9675C47.2543 17.1443 47.5397 17.1897 47.8107 17.2838C47.9645 17.327 48.1064 17.4046 48.2258 17.5108C48.3451 17.6169 48.4388 17.7488 48.4997 17.8965C48.5606 18.0441 48.5872 18.2038 48.5774 18.3632C48.5676 18.5226 48.5216 18.6778 48.4431 18.8168L46.8334 23.416C46.7184 23.7034 46.6034 24.0101 46.4693 24.3167C46.3375 24.6076 46.1202 24.8515 45.8463 25.0158C45.5724 25.1801 45.2549 25.2571 44.9362 25.2365H33.055L33.0934 25.2556Z" fill="#F8F7F7"/>
<path d="M43.1733 29.989C43.4498 29.9813 43.7252 30.0291 43.9829 30.1297C44.2407 30.2302 44.4757 30.3815 44.674 30.5744C44.8723 30.7674 45.0299 30.9981 45.1375 31.253C45.2451 31.508 45.3005 31.7819 45.3004 32.0586C45.2954 32.3379 45.2354 32.6136 45.1239 32.8698C45.0123 33.1259 44.8514 33.3576 44.6503 33.5515C44.4493 33.7455 44.2119 33.898 43.9519 34.0002C43.6919 34.1024 43.4143 34.1525 43.1349 34.1474C42.5892 34.1325 42.0705 33.9065 41.6881 33.5169C41.3056 33.1273 41.0892 32.6045 41.0845 32.0586C41.0845 31.7851 41.1386 31.5145 41.2438 31.2621C41.349 31.0097 41.5032 30.7808 41.6974 30.5883C41.8916 30.3959 42.122 30.2438 42.3754 30.141C42.6287 30.0381 42.8999 29.9864 43.1733 29.989Z" fill="#F8F7F7"/>
<path d="M33.7832 29.9506C34.0564 29.9454 34.3279 29.9953 34.5813 30.0975C34.8348 30.1997 35.065 30.3519 35.2583 30.5452C35.4515 30.7384 35.6038 30.9686 35.7059 31.222C35.8081 31.4755 35.8581 31.747 35.8529 32.0202C35.8029 32.5421 35.5603 33.0267 35.1723 33.3794C34.7843 33.732 34.2788 33.9274 33.7545 33.9274C33.2302 33.9274 32.7247 33.732 32.3367 33.3794C31.9487 33.0267 31.706 32.5421 31.6561 32.0202C31.6533 31.7427 31.7069 31.4676 31.8135 31.2115C31.9202 30.9553 32.0777 30.7235 32.2766 30.53C32.4754 30.3365 32.7115 30.1853 32.9705 30.0857C33.2295 29.9862 33.506 29.9402 33.7832 29.9506V29.9506Z" fill="#F8F7F7"/>
</svg>
