<svg width="16" height="18" viewBox="0 0 16 18" fill="none" xmlns="http://www.w3.org/2000/svg">
<path d="M8.95952 0C9.22918 0.27349 9.49811 0.547898 9.76869 0.820469C10.957 2.0179 12.1461 3.21459 13.3357 4.41055C13.36 4.43256 13.3791 4.45967 13.3917 4.48996C13.4043 4.52025 13.4101 4.55296 13.4087 4.58578C13.4011 5.46429 13.3972 6.3428 13.3905 7.22112C13.3905 7.28137 13.3808 7.34143 13.3746 7.41251C13.2423 7.35447 13.1248 7.29771 13.0035 7.25088C12.7942 7.16988 12.5839 7.09145 12.371 7.01963C12.3087 6.99869 12.2856 6.97463 12.2861 6.90704C12.2896 6.52133 12.2878 6.13561 12.2878 5.7499V5.625C12.1053 5.625 11.9333 5.62592 11.7608 5.625C10.7574 5.61949 9.75391 5.6149 8.75153 5.60571C8.67407 5.60211 8.59804 5.5834 8.52767 5.55061C8.19926 5.40918 7.98762 5.15333 7.8506 4.82933C7.8369 4.78908 7.83113 4.74653 7.83363 4.70406C7.82609 3.54998 7.81922 2.39596 7.81301 1.242C7.81301 1.20618 7.81301 1.17037 7.81301 1.12941H1.12279V16.8796H1.22971C2.73795 16.8796 4.24577 16.8792 5.75316 16.8783C5.82158 16.8783 5.87121 16.8947 5.9201 16.9461C6.26147 17.3046 6.60995 17.6541 7.00951 17.9467C7.02103 17.9522 7.03336 17.9556 7.046 17.957L7.02885 17.9798L6.82542 18H1.77322C1.7402 17.9965 1.70736 17.9905 1.67452 17.9901C1.41015 17.9879 1.14541 17.9873 0.881411 17.9842C0.845445 17.9852 0.809715 17.978 0.776868 17.9633C0.686814 17.919 0.599504 17.8694 0.515418 17.8145C0.210911 17.6073 0.0211641 17.334 0.021529 16.9476C0.021529 16.657 0.00675062 16.3662 0.00656818 16.0757C0.00316246 12.3422 0.000973061 8.60859 0 4.87488C0 3.6202 0.014596 2.36553 0.0206168 1.11086C0.0206168 0.904775 0.051998 0.70898 0.169678 0.534857C0.370372 0.238959 0.628537 0.0407755 1 0.0308571C1.20654 0.0253469 1.41307 0.0207551 1.62033 0.0143265C1.71393 0.0115714 1.80752 0.00551026 1.90112 0.000918423L8.95952 0Z" fill="#E29542"/>
<path d="M10.626 7.89353C13.4044 7.8263 15.8048 10.3498 15.6304 13.2568C15.4845 15.6916 13.3243 18.1598 10.2874 17.9886C7.83802 17.8505 5.4525 15.6335 5.5939 12.6569C5.71212 10.1613 7.93125 7.80739 10.626 7.89353ZM10.6078 16.8772C13.0004 16.8572 14.4989 14.8935 14.5211 12.9846C14.5436 11.0571 13.0541 9.02845 10.6114 9.01063C8.48608 8.99539 6.69607 10.7691 6.70428 12.9203C6.71249 15.0594 8.35964 16.8471 10.608 16.8772H10.6078Z" fill="#E29542"/>
<path d="M10.0529 13.4986C9.8422 13.4986 9.6479 13.5028 9.45395 13.4975C9.23246 13.4914 9.01024 13.4848 8.78984 13.4631C8.60319 13.4448 8.44829 13.2888 8.4118 13.1029C8.3744 12.9136 8.38352 12.7334 8.5158 12.5747C8.59261 12.4829 8.68274 12.42 8.80133 12.4151C9.15948 12.4002 9.51781 12.3899 9.87614 12.3783C9.93087 12.3765 9.98561 12.3783 10.0538 12.3783C10.0538 12.339 10.0538 12.3069 10.0538 12.2749C10.0599 11.917 10.0633 11.5586 10.0732 11.201C10.0792 10.9771 10.2385 10.7763 10.4432 10.72C10.6736 10.6564 10.9599 10.7435 11.0681 10.9304C11.1152 11.019 11.1413 11.1173 11.1443 11.2177C11.1604 11.5632 11.1626 11.9091 11.1712 12.2549C11.1721 12.2916 11.1743 12.3273 11.1761 12.3719C11.2137 12.3741 11.2458 12.3769 11.2781 12.3774C11.6152 12.3848 11.9531 12.391 12.2899 12.3993C12.47 12.4037 12.6251 12.4514 12.7397 12.6122C12.9165 12.8605 12.8533 13.4345 12.3958 13.4718C12.2171 13.4863 12.0378 13.4921 11.8586 13.4971C11.6672 13.5022 11.4755 13.5078 11.2843 13.5011C11.1874 13.4978 11.1684 13.5335 11.1693 13.6214C11.1715 13.8663 11.1673 14.1113 11.1609 14.3561C11.1575 14.4904 11.1456 14.6247 11.1359 14.7589C11.1232 14.9376 11.0159 15.0559 10.8663 15.1235C10.5468 15.2679 10.0965 15.1235 10.0818 14.7092C10.0692 14.3545 10.0621 13.9994 10.0529 13.6439C10.052 13.6023 10.0529 13.5601 10.0529 13.4986Z" fill="#E29542"/>
</svg>
