<svg width="20" height="20" viewBox="0 0 20 20" fill="none" xmlns="http://www.w3.org/2000/svg">
<path d="M4.44446 2.22217H13.3333C13.628 2.22217 13.9106 2.33923 14.119 2.5476C14.3274 2.75598 14.4445 3.03859 14.4445 3.33328H4.44446V16.6666H13.3333V11.7777C13.3333 11.4709 13.5821 11.2222 13.8889 11.2222C14.1957 11.2222 14.4445 11.4709 14.4445 11.7777V16.6666C14.4445 16.9613 14.3274 17.2439 14.119 17.4523C13.9106 17.6607 13.628 17.7777 13.3333 17.7777H4.44446C4.14977 17.7777 3.86716 17.6607 3.65878 17.4523C3.45041 17.2439 3.33335 16.9613 3.33335 16.6666V3.33328C3.33335 3.03859 3.45041 2.75598 3.65878 2.5476C3.86716 2.33923 4.14977 2.22217 4.44446 2.22217Z" fill="#E29542"/>
<path d="M11.6315 11C11.6315 11 11.5 11.5 10.9967 11.1776C10.9278 11.1442 10.8665 11.097 10.8167 11.0388L7.60004 7.82218L10.8112 4.60551C10.9174 4.5145 11.0541 4.46694 11.194 4.47234C11.3338 4.47774 11.5 4.5 11.6315 4.66615V7.22218H17.7778C17.9252 7.22218 18.0665 7.28071 18.1707 7.3849C18.2748 7.48908 18.3334 7.63039 18.3334 7.77773C18.3334 7.92508 18.2748 8.06638 18.1707 8.17057C18.0665 8.27476 17.9252 8.33329 17.7778 8.33329H11.6315V11Z" fill="#E29542"/>
</svg>
