<svg width="133" height="51" viewBox="0 0 133 51" fill="none" xmlns="http://www.w3.org/2000/svg">
<path d="M26.6428 41.2243L26.4824 41.4027C23.8448 41.3313 22.2528 41.2956 21.7063 41.2956C19.5202 41.2956 17.4886 41.3313 15.6114 41.4027L15.451 41.2243V40.1004L15.6292 39.9042L17.1797 39.815C17.8331 39.7793 18.1599 39.5474 18.1599 39.1193C18.1599 38.8695 17.9935 38.3106 17.6609 37.4424L16.2173 33.6784C14.5778 33.6546 12.9026 33.6427 11.1917 33.6427C10.265 33.6427 8.88686 33.6546 7.05722 33.6784L6.27308 35.8547C5.67904 37.5078 5.38202 38.5425 5.38202 38.9587C5.38202 39.4106 5.66122 39.6782 6.21962 39.7615C6.52852 39.809 7.13444 39.8566 8.03738 39.9042L8.2156 40.0826V41.2243L8.03738 41.4027C5.83943 41.3313 4.42561 41.2956 3.79593 41.2956C3.30881 41.2956 2.10291 41.3313 0.178213 41.4027L0 41.2421V40.0826L0.196034 39.9042C1.41976 39.8328 2.16825 39.589 2.44151 39.1728C2.72665 38.7565 3.77811 36.2769 5.59587 31.7339L10.2472 20.0851C10.5918 19.1813 11.1145 17.8196 11.8155 16H14.3461L23.7914 38.2452C24.1597 39.0895 24.4923 39.5652 24.7894 39.6723C25.1814 39.815 25.7458 39.8863 26.4824 39.8863L26.6428 40.0826V41.2243ZM15.3441 31.6269L11.5303 22.2793L7.87699 31.6269C8.85122 31.6626 10.1165 31.6804 11.6729 31.6804C13.1818 31.6804 14.4055 31.6626 15.3441 31.6269Z" fill="#F8F7F7"/>
<path d="M49.3649 30.9669C49.3649 35.1412 47.8144 38.1738 44.7135 40.0647C42.9789 41.1232 40.9592 41.6524 38.6543 41.6524C37.7395 41.6524 36.7534 41.5394 35.696 41.3135V46.2192C35.696 47.5868 35.7375 48.449 35.8207 48.8058C35.8801 49.0674 36.0405 49.2458 36.3019 49.341C36.5276 49.4242 37.3118 49.4956 38.6543 49.555L38.8325 49.7334V50.8395L38.6365 51L37.8167 50.9643C36.4504 50.9049 34.9772 50.8751 33.397 50.8751C32.1733 50.8751 30.605 50.9168 28.6922 51L28.514 50.8216V49.7334L28.6922 49.555C29.7496 49.5075 30.4031 49.4421 30.6526 49.3588C30.8664 49.2875 31.0149 49.1091 31.0981 48.8237C31.1694 48.5739 31.205 47.7057 31.205 46.2192V30.0214C31.205 28.5348 31.1634 27.6607 31.0803 27.3991C31.009 27.1256 30.8664 26.9531 30.6526 26.8818C30.4031 26.7985 29.7258 26.7331 28.6209 26.6855L28.4249 26.5071V25.5082L28.5853 25.3298C30.807 25.0919 33.0644 24.5924 35.3574 23.8313L35.7316 24.0632L35.7138 27.0958C37.5791 25.0622 39.7652 24.0454 42.272 24.0454C43.5195 24.0454 44.6838 24.3129 45.765 24.8481C46.9174 25.419 47.7966 26.2158 48.4025 27.2385C49.0441 28.3208 49.3649 29.5635 49.3649 30.9669ZM44.7313 33.3038C44.7313 30.4852 43.9353 28.5765 42.3433 27.5775C41.5354 27.0661 40.6562 26.8104 39.7057 26.8104C37.9117 26.8104 36.7118 27.5002 36.1059 28.8797C35.8326 29.51 35.696 30.5031 35.696 31.8588V37.9597C37.0029 39.2917 38.3929 39.9577 39.8661 39.9577C40.8285 39.9577 41.7077 39.6544 42.5037 39.0479C43.2403 38.4652 43.7928 37.71 44.1611 36.7824C44.5412 35.8072 44.7313 34.6476 44.7313 33.3038Z" fill="#F8F7F7"/>
<path d="M69.7524 41.1886L69.5742 41.3848C68.5405 41.3253 67.4713 41.2956 66.3663 41.2956C65.2377 41.2956 64.1921 41.3253 63.2298 41.3848L63.0516 41.1886L63.2298 38.9587L62.9625 38.8874C62.1665 39.6009 61.6378 40.0647 61.3764 40.2788C60.8418 40.7188 60.3665 41.0459 59.9507 41.2599C59.1903 41.6524 58.2339 41.8486 57.0815 41.8486C54.0637 41.8486 52.5549 40.3502 52.5549 37.3532C52.5549 35.7953 53.0182 34.5882 53.9449 33.7319C54.6578 33.0778 56.2261 32.5248 58.6497 32.0729L62.9981 31.2701C62.9744 30.1998 62.8793 29.397 62.713 28.8619C62.4635 28.0651 61.9883 27.4407 61.2873 26.9888C60.717 26.632 60.0695 26.4536 59.3448 26.4536C58.822 26.4536 58.1389 26.5369 57.2953 26.7034L55.9409 29.3078L55.7092 29.4327L54.9429 29.29L54.7647 29.0403L54.9429 26.6677C57.7112 24.8243 59.8972 23.9027 61.5011 23.9027C63.7585 23.9027 65.4099 24.6103 66.4554 26.0255C67.0732 26.858 67.3822 28.0353 67.3822 29.5576C67.3822 30.0571 67.3524 31.2939 67.293 33.2681C67.2693 34.053 67.2574 34.7309 67.2574 35.3017C67.2574 37.9419 67.3465 39.375 67.5247 39.6009C67.7029 39.8269 68.392 39.9636 69.592 40.0112L69.7524 40.1896V41.1886ZM63.0338 35.159V32.287C61.9526 32.5962 61.121 32.8519 60.5388 33.054C59.3745 33.4465 58.6022 33.7854 58.222 34.0708C57.426 34.6655 57.028 35.492 57.028 36.5505C57.028 37.2878 57.2656 37.9003 57.7409 38.3879C58.2161 38.8755 58.822 39.1193 59.5586 39.1193C60.6873 39.1193 61.6199 38.6555 62.3566 37.7278C62.808 37.157 63.0338 36.3007 63.0338 35.159Z" fill="#F8F7F7"/>
<path d="M92.421 30.9669C92.421 35.1412 90.8706 38.1738 87.7697 40.0647C86.0351 41.1232 84.0153 41.6524 81.7104 41.6524C80.7956 41.6524 79.8095 41.5394 78.7521 41.3135V46.2192C78.7521 47.5868 78.7937 48.449 78.8769 48.8058C78.9363 49.0674 79.0967 49.2458 79.358 49.341C79.5838 49.4242 80.3679 49.4956 81.7104 49.555L81.8886 49.7334V50.8395L81.6926 51L80.8728 50.9643C79.5065 50.9049 78.0333 50.8751 76.4532 50.8751C75.2294 50.8751 73.6612 50.9168 71.7484 51L71.5701 50.8216V49.7334L71.7484 49.555C72.8058 49.5075 73.4592 49.4421 73.7087 49.3588C73.9226 49.2875 74.0711 49.1091 74.1542 48.8237C74.2255 48.5739 74.2612 47.7057 74.2612 46.2192V30.0214C74.2612 28.5348 74.2196 27.6607 74.1364 27.3991C74.0651 27.1256 73.9226 26.9531 73.7087 26.8818C73.4592 26.7985 72.782 26.7331 71.6771 26.6855L71.481 26.5071V25.5082L71.6414 25.3298C73.8632 25.0919 76.1205 24.5924 78.4135 23.8313L78.7878 24.0632L78.7699 27.0958C80.6352 25.0622 82.8213 24.0454 85.3282 24.0454C86.5756 24.0454 87.74 24.3129 88.8211 24.8481C89.9736 25.419 90.8527 26.2158 91.4587 27.2385C92.1002 28.3208 92.421 29.5635 92.421 30.9669ZM87.7875 33.3038C87.7875 30.4852 86.9915 28.5765 85.3994 27.5775C84.5915 27.0661 83.7124 26.8104 82.7619 26.8104C80.9679 26.8104 79.7679 27.5002 79.162 28.8797C78.8887 29.51 78.7521 30.5031 78.7521 31.8588V37.9597C80.059 39.2917 81.4491 39.9577 82.9223 39.9577C83.8846 39.9577 84.7638 39.6544 85.5598 39.0479C86.2964 38.4652 86.8489 37.71 87.2172 36.7824C87.5974 35.8072 87.7875 34.6476 87.7875 33.3038Z" fill="#F8F7F7"/>
<path d="M112.809 41.1886L112.63 41.3848C111.597 41.3253 110.527 41.2956 109.422 41.2956C108.294 41.2956 107.248 41.3253 106.286 41.3848L106.108 41.1886L106.286 38.9587L106.019 38.8874C105.223 39.6009 104.694 40.0647 104.433 40.2788C103.898 40.7188 103.423 41.0459 103.007 41.2599C102.246 41.6524 101.29 41.8486 100.138 41.8486C97.1199 41.8486 95.611 40.3502 95.611 37.3532C95.611 35.7953 96.0744 34.5882 97.0011 33.7319C97.7139 33.0778 99.2822 32.5248 101.706 32.0729L106.054 31.2701C106.031 30.1998 105.935 29.397 105.769 28.8619C105.52 28.0651 105.044 27.4407 104.343 26.9888C103.773 26.632 103.126 26.4536 102.401 26.4536C101.878 26.4536 101.195 26.5369 100.351 26.7034L98.9971 29.3078L98.7654 29.4327L97.9991 29.29L97.8209 29.0403L97.9991 26.6677C100.767 24.8243 102.953 23.9027 104.557 23.9027C106.815 23.9027 108.466 24.6103 109.512 26.0255C110.129 26.858 110.438 28.0353 110.438 29.5576C110.438 30.0571 110.409 31.2939 110.349 33.2681C110.325 34.053 110.314 34.7309 110.314 35.3017C110.314 37.9419 110.403 39.375 110.581 39.6009C110.759 39.8269 111.448 39.9636 112.648 40.0112L112.809 40.1896V41.1886ZM106.09 35.159V32.287C105.009 32.5962 104.177 32.8519 103.595 33.054C102.431 33.4465 101.658 33.7854 101.278 34.0708C100.482 34.6655 100.084 35.492 100.084 36.5505C100.084 37.2878 100.322 37.9003 100.797 38.3879C101.272 38.8755 101.878 39.1193 102.615 39.1193C103.743 39.1193 104.676 38.6555 105.413 37.7278C105.864 37.157 106.09 36.3007 106.09 35.159Z" fill="#F8F7F7"/>
<path d="M133 28.9867L132.804 29.183H132.127L131.984 28.9867C131.592 27.7499 131.254 26.9472 130.968 26.5785C130.778 26.3169 130.475 26.1504 130.059 26.079C129.739 26.0195 128.378 25.9898 125.978 25.9898V32.0907C125.978 36.265 126.038 38.6138 126.157 39.1371C126.24 39.4939 126.442 39.7198 126.763 39.815C126.965 39.8744 127.582 39.928 128.616 39.9755L128.794 40.1539V41.2421L128.616 41.4205C127.499 41.3372 125.871 41.2956 123.733 41.2956C121.594 41.2956 119.967 41.3372 118.85 41.4205L118.672 41.2421V40.1539L118.85 39.9755C119.86 39.928 120.466 39.8744 120.668 39.815C120.977 39.7198 121.173 39.4939 121.256 39.1371C121.375 38.6138 121.434 36.265 121.434 32.0907V25.9898C119.189 25.9898 117.852 26.0136 117.424 26.0612C117.044 26.1087 116.723 26.2693 116.462 26.5428C116.201 26.8163 115.856 27.631 115.428 28.9867L115.286 29.183H114.608L114.412 28.9867C114.436 27.9283 114.448 27.191 114.448 26.7747C114.448 25.8114 114.436 25.0979 114.412 24.634L114.591 24.3843C116.575 24.4676 119.616 24.5092 123.715 24.5092C128.04 24.5092 131.075 24.4676 132.822 24.3843L133 24.634C132.976 25.0979 132.964 25.8114 132.964 26.7747C132.964 27.191 132.976 27.9283 133 28.9867Z" fill="#F8F7F7"/>
<path d="M74.8713 11.85C74.8288 12.0878 74.8288 12.2607 74.8713 12.3688C74.9139 12.4661 75.0096 12.5147 75.1585 12.5147C75.35 12.5147 75.5361 12.4066 75.7169 12.1905C75.8977 11.9743 76.0839 11.5745 76.2753 10.9909L76.4987 10.3262H76.8018L76.4189 11.5096C76.2807 11.9419 76.0998 12.2823 75.8765 12.5309C75.6637 12.7687 75.4297 12.9362 75.1745 13.0334C74.9192 13.1307 74.6586 13.1793 74.3927 13.1793C73.9991 13.1793 73.6907 13.0496 73.4673 12.7903C73.244 12.5201 73.1908 12.0986 73.3078 11.5258L73.5311 10.5046C73.6588 9.88855 73.6003 9.44005 73.3556 9.15907C73.1216 8.87808 72.5951 8.70517 71.7761 8.64032V8.57548C72.2016 8.54306 72.6324 8.54306 73.0684 8.57548C73.5045 8.6079 73.8875 8.69976 74.2172 8.85106C74.5576 8.99156 74.8128 9.2131 74.983 9.5157C75.1532 9.8075 75.1904 10.1966 75.0947 10.6829L74.8713 11.85ZM76.052 4.71732C75.9243 4.71732 75.8127 4.73894 75.7169 4.78217C75.6212 4.8254 75.5255 4.87943 75.4297 4.94428C75.2383 5.10638 75.0734 5.33874 74.9351 5.64134C74.7969 5.94394 74.6586 6.26815 74.5203 6.61398C74.3821 6.949 74.2119 7.27322 74.0098 7.58663C73.8183 7.90003 73.5577 8.154 73.228 8.34853C72.9089 8.54306 72.4888 8.63492 71.9676 8.62411L71.808 8.64032L71.8399 8.46201C72.3505 8.42959 72.76 8.31071 73.0684 8.10537C73.3769 7.90003 73.6215 7.64606 73.8024 7.34346C73.9832 7.04086 74.1374 6.72746 74.2651 6.40324C74.3927 6.06822 74.5256 5.75481 74.6639 5.46302C74.8022 5.16042 74.9777 4.92266 75.1904 4.74975C75.3819 4.59845 75.5574 4.50118 75.7169 4.45795C75.8765 4.40392 76.0254 4.3769 76.1637 4.3769C76.5891 4.3769 76.8869 4.49037 77.0571 4.71732C77.2273 4.94428 77.3018 5.20905 77.2805 5.51165C77.2805 5.68457 77.2379 5.86288 77.1529 6.04661C77.0784 6.21952 76.9614 6.36542 76.8018 6.48429C76.6423 6.60317 76.4508 6.66261 76.2275 6.66261C75.9509 6.66261 75.7542 6.58696 75.6372 6.43566C75.5202 6.27356 75.4617 6.08983 75.4617 5.8845C75.4723 5.67916 75.5467 5.47383 75.685 5.26849C75.8233 5.06315 75.9828 4.89024 76.1637 4.74975C76.1424 4.73894 76.1211 4.73354 76.0998 4.73354C76.0892 4.72273 76.0732 4.71732 76.052 4.71732ZM70.6593 12.9524H69L71.106 5.98176C71.1486 5.86288 71.1805 5.7332 71.2017 5.5927C71.2337 5.4414 71.2337 5.31172 71.2017 5.20365C71.1698 5.09558 71.0741 5.04154 70.9146 5.04154C70.7018 5.04154 70.4997 5.15501 70.3083 5.38197C70.1168 5.60892 69.9147 6.00338 69.702 6.56535L69.4627 7.2462H69.1595L69.5903 6.04661C69.7499 5.60351 69.9413 5.26309 70.1647 5.02533C70.3881 4.78757 70.6221 4.62006 70.8667 4.5228C71.122 4.42553 71.3719 4.3769 71.6166 4.3769C71.9569 4.3769 72.2016 4.45255 72.3505 4.60385C72.4994 4.74434 72.5898 4.92806 72.6217 5.15501C72.6536 5.38197 72.643 5.63053 72.5898 5.90071C72.5366 6.16008 72.4781 6.40865 72.4143 6.6464L70.6593 12.9524Z" fill="#F8F7F7"/>
<path d="M82.821 4.70111C82.5125 4.70111 82.2094 4.84161 81.9116 5.12259C81.6138 5.40358 81.3319 5.78723 81.066 6.27356C80.8107 6.74907 80.582 7.28402 80.3799 7.87842C80.1778 8.47281 80.0183 9.08882 79.9013 9.72644C79.7949 10.3641 79.7418 10.9693 79.7418 11.542C79.7418 11.9959 79.8056 12.331 79.9332 12.5471C80.0715 12.7524 80.2683 12.8551 80.5235 12.8551C80.832 12.8551 81.1351 12.7146 81.4329 12.4336C81.7308 12.1527 82.0126 11.7744 82.2785 11.2989C82.5445 10.8234 82.7731 10.2938 82.9646 9.71023C83.1667 9.11584 83.3209 8.49983 83.4273 7.86221C83.5443 7.22459 83.6028 6.60858 83.6028 6.01418C83.6028 5.53867 83.539 5.20365 83.4113 5.00912C83.2837 4.80378 83.0869 4.70111 82.821 4.70111ZM78.1144 10.5856C78.1144 10.1101 78.1782 9.59135 78.3058 9.02938C78.4335 8.46741 78.6302 7.91084 78.8962 7.35968C79.1621 6.80851 79.4812 6.31138 79.8534 5.86829C80.2363 5.41439 80.6831 5.05235 81.1936 4.78217C81.7148 4.51199 82.2892 4.3769 82.9167 4.3769C83.6294 4.3769 84.1931 4.59304 84.6079 5.02533C85.0228 5.44681 85.2302 6.09524 85.2302 6.97062C85.2302 7.44613 85.1663 7.96488 85.0387 8.52685C84.9111 9.08882 84.7143 9.64539 84.4484 10.1966C84.1825 10.7477 83.8581 11.2503 83.4752 11.7042C83.1029 12.1472 82.6561 12.5039 82.135 12.7741C81.6244 13.0442 81.0554 13.1793 80.4278 13.1793C79.7152 13.1793 79.1514 12.9632 78.7366 12.5309C78.3218 12.0986 78.1144 11.4502 78.1144 10.5856Z" fill="#F8F7F7"/>
<path d="M95.4404 5.00912C95.2171 5.00912 94.9671 5.1388 94.6906 5.39818C94.414 5.64674 94.1321 5.99257 93.845 6.43566C93.5684 6.87876 93.3078 7.38129 93.0632 7.94326C92.8292 8.50523 92.6377 9.09422 92.4888 9.71023L92.8398 7.99189C93.1908 7.10571 93.5365 6.39784 93.8769 5.86829C94.2172 5.33874 94.5682 4.96049 94.9299 4.73354C95.2915 4.49578 95.6638 4.3769 96.0467 4.3769C96.5998 4.3769 97.0306 4.57683 97.339 4.9767C97.6581 5.36575 97.8177 5.94934 97.8177 6.72746C97.8177 7.22459 97.7485 7.76494 97.6103 8.34853C97.472 8.92131 97.2699 9.49409 97.004 10.0669C96.7487 10.6288 96.4296 11.1476 96.0467 11.6231C95.6744 12.0986 95.2383 12.4769 94.7384 12.7579C94.2491 13.0388 93.7067 13.1793 93.111 13.1793C92.7813 13.1793 92.4835 13.0929 92.2176 12.92C91.9623 12.747 91.7815 12.5039 91.6751 12.1905L91.8028 11.8825C91.941 12.2067 92.0953 12.439 92.2654 12.5795C92.4463 12.7092 92.6537 12.7741 92.8877 12.7741C93.2387 12.7741 93.5737 12.639 93.8928 12.3688C94.2119 12.0878 94.5097 11.715 94.7863 11.2503C95.0628 10.7855 95.3022 10.2722 95.5042 9.71023C95.717 9.14826 95.8765 8.58088 95.9829 8.00811C96.0999 7.43533 96.1584 6.90037 96.1584 6.40324C96.1584 5.90611 96.0946 5.54948 95.9669 5.33333C95.8393 5.11719 95.6638 5.00912 95.4404 5.00912ZM88.4363 12.5633C88.6597 12.5633 88.9043 12.439 89.1702 12.1905C89.4468 11.9311 89.7286 11.5745 90.0158 11.1206C90.303 10.6667 90.5742 10.1371 90.8295 9.53191C91.0848 8.91591 91.3028 8.25127 91.4837 7.53799L91.1805 9.28875C90.8189 10.2182 90.4626 10.9693 90.1116 11.542C89.7606 12.1148 89.3989 12.5309 89.0266 12.7903C88.6544 13.0496 88.2449 13.1793 87.7981 13.1793C87.4684 13.1793 87.1706 13.0983 86.9047 12.9362C86.6388 12.7633 86.4313 12.5093 86.2824 12.1743C86.1335 11.8284 86.0591 11.3961 86.0591 10.8774C86.0591 10.3911 86.1282 9.85613 86.2665 9.27254C86.4047 8.68896 86.6068 8.11077 86.8728 7.53799C87.1387 6.96521 87.4631 6.44107 87.846 5.96555C88.2395 5.47923 88.6863 5.09558 89.1862 4.81459C89.6967 4.5228 90.2605 4.3769 90.8774 4.3769C91.2177 4.3769 91.4996 4.46876 91.723 4.65248C91.957 4.8362 92.1112 5.09558 92.1857 5.4306L92.058 5.75481C91.941 5.38737 91.7974 5.128 91.6273 4.9767C91.4571 4.8254 91.239 4.74975 90.9731 4.74975C90.6434 4.74975 90.319 4.89024 89.9999 5.17123C89.6914 5.4414 89.3989 5.80885 89.1224 6.27356C88.8458 6.73826 88.6012 7.25701 88.3885 7.82979C88.1757 8.40257 88.0109 8.98615 87.8939 9.58055C87.7769 10.1641 87.7184 10.7207 87.7184 11.2503C87.7184 11.6933 87.7769 12.023 87.8939 12.2391C88.0215 12.4553 88.2023 12.5633 88.4363 12.5633ZM96.0627 0.534954C95.8712 0.534954 95.701 0.572779 95.5521 0.648429C95.4138 0.724079 95.2862 0.81594 95.1692 0.924012C94.999 1.08612 94.8448 1.33468 94.7065 1.66971C94.5789 1.99392 94.4566 2.37217 94.3396 2.80446C94.2332 3.22594 94.1162 3.68524 93.9886 4.18237L90.9252 15.7731C90.6062 15.7839 90.303 15.8055 90.0158 15.8379C89.7286 15.8703 89.4574 15.9243 89.2021 16L92.1857 4.63627C92.4197 3.76089 92.6696 3.03681 92.9355 2.46403C93.2015 1.88045 93.5259 1.41574 93.9088 1.06991C94.1641 0.821344 94.4725 0.626815 94.8341 0.486322C95.2064 0.345829 95.5893 0.275582 95.9829 0.275582C96.5253 0.275582 96.9455 0.399864 97.2433 0.648429C97.5411 0.886187 97.69 1.18879 97.69 1.55623C97.69 1.75076 97.6369 1.94529 97.5305 2.13982C97.4241 2.32354 97.2805 2.47484 97.0997 2.59372C96.9295 2.7126 96.7274 2.77204 96.4934 2.77204C96.2488 2.77204 96.0573 2.718 95.9191 2.60993C95.7808 2.49105 95.717 2.32894 95.7276 2.12361C95.7276 1.82101 95.818 1.56163 95.9988 1.34549C96.1903 1.11854 96.4349 0.956433 96.7328 0.859169C96.7221 0.783519 96.653 0.713272 96.5253 0.648429C96.4083 0.572779 96.2541 0.534954 96.0627 0.534954Z" fill="#F8F7F7"/>
<path d="M99.9737 9.32118C100.516 9.12665 101.011 8.92671 101.457 8.72138C101.915 8.51604 102.287 8.29449 102.574 8.05674C102.968 7.72172 103.276 7.32725 103.5 6.87335C103.734 6.40864 103.851 5.90071 103.851 5.34954C103.851 5.06856 103.829 4.89024 103.787 4.81459C103.744 4.72813 103.68 4.6849 103.595 4.6849C103.34 4.6849 103.064 4.80378 102.766 5.04154C102.479 5.2793 102.191 5.60892 101.904 6.03039C101.617 6.44107 101.351 6.91118 101.106 7.44073C100.872 7.95947 100.681 8.51604 100.532 9.11044C100.394 9.69402 100.325 10.2722 100.325 10.845C100.325 11.407 100.426 11.8068 100.628 12.0446C100.841 12.2823 101.117 12.4012 101.457 12.4012C101.808 12.4012 102.197 12.2931 102.622 12.077C103.048 11.8501 103.468 11.4502 103.883 10.8774L104.138 11.0071C103.925 11.3637 103.649 11.7096 103.308 12.0446C102.968 12.3796 102.58 12.6552 102.144 12.8713C101.718 13.0767 101.255 13.1793 100.755 13.1793C100.319 13.1793 99.9311 13.0929 99.5908 12.92C99.2504 12.747 98.9845 12.4931 98.793 12.1581C98.6122 11.8122 98.5218 11.3907 98.5218 10.8936C98.5218 10.3965 98.6069 9.85613 98.7771 9.27254C98.9579 8.67815 99.2079 8.09456 99.5269 7.52178C99.8567 6.949 100.245 6.42486 100.692 5.94934C101.138 5.46302 101.638 5.07937 102.191 4.79838C102.744 4.51739 103.329 4.3769 103.946 4.3769C104.329 4.3769 104.648 4.47416 104.904 4.66869C105.159 4.85241 105.287 5.1334 105.287 5.51165C105.287 5.94394 105.164 6.34921 104.92 6.72746C104.686 7.0949 104.367 7.42992 103.962 7.73252C103.558 8.03512 103.117 8.3053 102.638 8.54306C102.17 8.78082 101.697 8.98615 101.218 9.15907C100.75 9.33198 100.33 9.47248 99.9577 9.58055L99.9737 9.32118Z" fill="#F8F7F7"/>
<path d="M111.754 7.31104C111.361 8.43499 110.989 9.37521 110.638 10.1317C110.287 10.8774 109.936 11.4772 109.585 11.9311C109.244 12.3742 108.893 12.693 108.532 12.8875C108.17 13.0821 107.798 13.1793 107.415 13.1793C106.947 13.1793 106.601 13.0767 106.378 12.8713C106.165 12.6552 106.053 12.3634 106.043 11.9959C106.032 11.6285 106.101 11.207 106.25 10.7315L107.798 5.98176C107.904 5.65755 107.936 5.41979 107.893 5.26849C107.861 5.11719 107.75 5.04154 107.558 5.04154C107.377 5.04154 107.191 5.14421 107 5.34954C106.819 5.55488 106.622 5.96015 106.41 6.56535L106.17 7.22999H105.867L106.266 6.04661C106.425 5.5927 106.617 5.24688 106.84 5.00912C107.074 4.77136 107.314 4.60925 107.558 4.5228C107.814 4.42553 108.053 4.3769 108.276 4.3769C108.744 4.3769 109.069 4.48497 109.249 4.70111C109.43 4.91726 109.51 5.20905 109.489 5.57649C109.478 5.93313 109.398 6.32219 109.249 6.74367L107.766 11.2989C107.489 12.1418 107.585 12.5633 108.053 12.5633C108.287 12.5633 108.542 12.4444 108.819 12.2067C109.095 11.9581 109.377 11.6069 109.664 11.153C109.962 10.6991 110.255 10.1641 110.542 9.54813C110.829 8.93212 111.106 8.25127 111.371 7.50557C111.637 6.75988 111.877 5.97096 112.089 5.1388L111.754 7.31104ZM111.978 11.5745C111.903 11.8555 111.866 12.0824 111.866 12.2553C111.877 12.4282 111.983 12.5147 112.185 12.5147C112.408 12.5147 112.611 12.4012 112.791 12.1743C112.983 11.9365 113.169 11.542 113.35 10.9909L113.589 10.31H113.892L113.493 11.5096C113.345 11.9527 113.158 12.2931 112.935 12.5309C112.712 12.7687 112.472 12.9362 112.217 13.0334C111.972 13.1307 111.728 13.1793 111.483 13.1793C111.281 13.1793 111.095 13.1361 110.925 13.0496C110.765 12.974 110.643 12.8605 110.558 12.7092C110.462 12.5147 110.425 12.2769 110.446 11.9959C110.467 11.715 110.531 11.3529 110.638 10.9098L112.217 4.60385C112.547 4.59304 112.855 4.57143 113.142 4.53901C113.44 4.50659 113.711 4.45255 113.956 4.3769L111.978 11.5745ZM110.031 1.89666C110.116 1.9615 110.255 2.02094 110.446 2.07497C110.648 2.12901 110.872 2.15603 111.116 2.15603C111.531 2.15603 111.951 2.08578 112.377 1.94529C112.802 1.8048 113.201 1.59946 113.573 1.32928C113.956 1.04829 114.275 0.713272 114.53 0.324214L114.77 0.502533C114.27 1.22661 113.68 1.74536 112.999 2.05876C112.318 2.36136 111.664 2.51266 111.036 2.51266C110.717 2.51266 110.388 2.46944 110.047 2.38298C109.717 2.29652 109.441 2.15603 109.218 1.9615C108.994 1.76697 108.883 1.50219 108.883 1.16717C108.883 0.821343 109 0.540357 109.234 0.324214C109.468 0.108071 109.749 0 110.079 0C110.334 0 110.531 0.0648428 110.669 0.194528C110.818 0.324214 110.893 0.51334 110.893 0.761905C110.893 1.03208 110.808 1.26984 110.638 1.47518C110.478 1.66971 110.276 1.8102 110.031 1.89666Z" fill="#F8F7F7"/>
<path d="M117.07 8.42958H121.377V8.7538H117.07V8.42958ZM116.767 12.9524H115.091L117.006 5.98176C117.048 5.86288 117.08 5.7332 117.102 5.5927C117.133 5.4414 117.128 5.31172 117.086 5.20365C117.054 5.09558 116.958 5.04154 116.798 5.04154C116.586 5.04154 116.389 5.15501 116.208 5.38197C116.027 5.60892 115.836 6.00338 115.634 6.56535L115.394 7.2462H115.091L115.49 6.04661C115.65 5.60351 115.836 5.26309 116.049 5.02533C116.261 4.78757 116.49 4.62006 116.735 4.5228C116.99 4.42553 117.24 4.3769 117.484 4.3769C117.814 4.3769 118.059 4.45255 118.218 4.60385C118.378 4.74434 118.474 4.92806 118.506 5.15501C118.537 5.38197 118.532 5.63053 118.49 5.90071C118.458 6.16008 118.41 6.40865 118.346 6.6464L116.767 12.9524ZM121.425 11.5745C121.351 11.8555 121.314 12.0824 121.314 12.2553C121.324 12.4282 121.431 12.5147 121.633 12.5147C121.856 12.5147 122.058 12.4012 122.239 12.1743C122.43 11.9365 122.617 11.542 122.797 10.9909L123.037 10.31H123.34L122.941 11.5096C122.792 11.9527 122.606 12.2931 122.383 12.5309C122.159 12.7687 121.92 12.9362 121.665 13.0334C121.42 13.1307 121.175 13.1793 120.931 13.1793C120.729 13.1793 120.542 13.1361 120.372 13.0496C120.213 12.974 120.09 12.8605 120.005 12.7092C119.91 12.5147 119.872 12.2769 119.894 11.9959C119.915 11.715 119.979 11.3529 120.085 10.9098L121.665 4.60385C121.994 4.59304 122.303 4.57143 122.59 4.53901C122.888 4.50659 123.159 4.45255 123.404 4.3769L121.425 11.5745Z" fill="#F8F7F7"/>
<path d="M130.069 6.56535C130.25 6.06822 130.341 5.68457 130.341 5.41439C130.341 5.14421 130.266 4.95508 130.117 4.84701C129.968 4.72813 129.761 4.66869 129.495 4.66869C129.08 4.66869 128.692 4.78217 128.33 5.00912C127.979 5.22526 127.692 5.52246 127.469 5.90071C127.245 6.27896 127.134 6.72205 127.134 7.22999C127.134 7.61905 127.235 7.94326 127.437 8.20263C127.639 8.46201 127.985 8.59169 128.474 8.59169C128.665 8.59169 128.889 8.57548 129.144 8.54306C129.399 8.51064 129.612 8.47281 129.782 8.42958L129.814 8.64032C129.527 8.73759 129.187 8.80784 128.793 8.85106C128.41 8.89429 128.043 8.91591 127.692 8.91591C127.022 8.91591 126.501 8.77541 126.129 8.49443C125.756 8.20263 125.57 7.80817 125.57 7.31104C125.57 7.03006 125.639 6.72205 125.778 6.38703C125.916 6.0412 126.139 5.71699 126.448 5.41439C126.756 5.11179 127.171 4.86322 127.692 4.66869C128.213 4.47416 128.857 4.3769 129.623 4.3769C130.325 4.3769 130.851 4.47416 131.202 4.66869C131.564 4.85241 131.771 5.1388 131.824 5.52786C131.888 5.90611 131.819 6.38703 131.617 6.97062L130.022 11.5745C129.979 11.7042 129.947 11.8446 129.926 11.9959C129.915 12.1472 129.937 12.2715 129.99 12.3688C130.043 12.4661 130.149 12.5147 130.309 12.5147C130.511 12.5147 130.702 12.4012 130.883 12.1743C131.075 11.9473 131.266 11.5529 131.458 10.9909L131.697 10.3262H132L131.601 11.5096C131.463 11.9419 131.277 12.2823 131.043 12.5309C130.819 12.7687 130.58 12.9362 130.325 13.0334C130.069 13.1307 129.814 13.1793 129.559 13.1793C128.974 13.1793 128.607 12.9794 128.458 12.5795C128.309 12.1689 128.362 11.5853 128.618 10.8288L130.069 6.56535ZM123.193 11.9149C123.289 12.0338 123.406 12.1256 123.544 12.1905C123.682 12.2553 123.81 12.2877 123.927 12.2877C124.15 12.2877 124.315 12.2175 124.422 12.077C124.528 11.9257 124.629 11.742 124.725 11.5258L125.203 10.4397C125.416 9.98582 125.661 9.65079 125.937 9.43465C126.214 9.2077 126.517 9.0564 126.847 8.98075C127.176 8.89429 127.511 8.84026 127.852 8.81864C128.15 8.79703 128.431 8.76461 128.697 8.72138C128.963 8.67815 129.229 8.64032 129.495 8.6079L129.431 8.77001C129.059 8.82405 128.74 8.87808 128.474 8.93212C128.219 8.97535 127.995 9.04559 127.804 9.14286C127.623 9.22931 127.458 9.359 127.309 9.53191C127.171 9.70483 127.027 9.95339 126.879 10.2776L126.496 11.2989C126.315 11.7744 126.123 12.1527 125.921 12.4336C125.719 12.7038 125.501 12.8929 125.267 13.001C125.033 13.1199 124.778 13.1793 124.501 13.1793C124.15 13.1793 123.847 13.0929 123.592 12.92C123.337 12.747 123.135 12.4607 122.986 12.0608L123.193 11.9149Z" fill="#F8F7F7"/>
</svg>
