<svg width="17" height="14" viewBox="0 0 17 14" fill="none" xmlns="http://www.w3.org/2000/svg">
<path d="M15.2881 0C15.7658 0 16.1639 0.177388 16.4824 0.532164C16.8275 0.859649 17 1.26901 17 1.76023V12.2398C17 12.731 16.8275 13.154 16.4824 13.5088C16.1639 13.8363 15.7658 14 15.2881 14H1.71194C1.23419 14 0.822795 13.8363 0.477752 13.5088C0.159251 13.154 0 12.731 0 12.2398V1.76023C0 1.26901 0.159251 0.859649 0.477752 0.532164C0.822795 0.177388 1.23419 0 1.71194 0H15.2881ZM15.2881 3.52047V1.76023L8.48009 6.14035L1.71194 1.76023V3.52047L8.48009 7.85965L15.2881 3.52047Z" fill="#E29542"/>
</svg>
