<svg width="13" height="17" viewBox="0 0 13 17" fill="none" xmlns="http://www.w3.org/2000/svg">
<path d="M1.79723 1.75587C3.02325 0.585289 4.50005 0 6.22762 0C7.95519 0 9.43199 0.585289 10.658 1.75587C11.884 2.89984 12.497 4.29656 12.497 5.94601C12.497 6.77074 12.2741 7.72848 11.8283 8.81925C11.4103 9.88341 10.8949 10.8811 10.2818 11.8122C9.66884 12.7167 9.05583 13.5814 8.44282 14.4061C7.82981 15.2042 7.31432 15.8427 6.89636 16.3216L6.22762 17C6.06044 16.8404 5.83752 16.6009 5.55888 16.2817C5.28024 15.9624 4.77869 15.3505 4.05422 14.446C3.35762 13.5149 2.73068 12.6236 2.1734 11.7723C1.61612 10.8944 1.11456 9.91002 0.668738 8.81925C0.222913 7.72848 0 6.77074 0 5.94601C0 4.29656 0.599078 2.89984 1.79723 1.75587ZM4.63937 7.46244C5.08519 7.8615 5.61461 8.06103 6.22762 8.06103C6.84063 8.06103 7.37005 7.8615 7.81587 7.46244C8.2617 7.03678 8.48461 6.5313 8.48461 5.94601C8.48461 5.36072 8.2617 4.86854 7.81587 4.46948C7.37005 4.04382 6.84063 3.83099 6.22762 3.83099C5.61461 3.83099 5.08519 4.04382 4.63937 4.46948C4.22141 4.86854 4.01243 5.36072 4.01243 5.94601C4.01243 6.5313 4.22141 7.03678 4.63937 7.46244Z" fill="#E29542"/>
</svg>
