<svg width="15" height="17" viewBox="0 0 15 17" fill="none" xmlns="http://www.w3.org/2000/svg">
<path d="M3.00781 7.34896C4.23177 10.0938 6.06771 12.1745 8.51562 13.5911L10.3516 11.5104C10.5859 11.2153 10.8724 11.1415 11.2109 11.2891C12.1484 11.6432 13.138 11.8203 14.1797 11.8203C14.388 11.8203 14.5703 11.9089 14.7266 12.0859C14.9089 12.263 15 12.4844 15 12.75V16.0703C15 16.3064 14.9089 16.5278 14.7266 16.7344C14.5703 16.9115 14.388 17 14.1797 17C11.6016 17 9.21875 16.2917 7.03125 14.875C4.86979 13.4288 3.15104 11.4809 1.875 9.03125C0.625 6.55208 0 3.85156 0 0.929688C0 0.693576 0.078125 0.486979 0.234375 0.309896C0.416667 0.103299 0.611979 0 0.820312 0H3.75C3.98438 0 4.17969 0.103299 4.33594 0.309896C4.49219 0.486979 4.57031 0.693576 4.57031 0.929688C4.57031 2.11024 4.72656 3.23177 5.03906 4.29427C5.14323 4.67795 5.07812 5.0026 4.84375 5.26823L3.00781 7.34896Z" fill="#E29542"/>
</svg>
